<?xml version="1.0" standalone="yes"?>
<svg xmlns="http://www.w3.org/2000/svg" width="1100" height="158">
<path style="fill:#47714d; stroke:none;" d="M0 0L0 54L1 54C8.20975 35.3902 32.0311 40 48 40C51.031 26.8984 55.7749 6.82086 69 1L47 0L0 0z"/>
<path style="fill:#493d8d; stroke:none;" d="M69 0L70 1L69 0z"/>
<path style="fill:#e42a2f; stroke:none;" d="M57 14L58 14C60.8869 8.61565 66.04 6.23076 70.2978 12.0586C79.3475 24.4453 76.8523 44.7042 88.1883 55.787C96.3784 63.7942 114.243 62 125 62L125 63C112.647 69.152 97.532 79.6668 99.1736 95C100.421 106.651 120.146 138.17 103 143L103 144C106.315 144.789 109.583 145.236 113 144.815C139.919 141.495 125.823 107.208 120 92C129.268 88.082 143.872 77.8483 148.91 69C155.49 57.4444 147.344 43.2276 135 41L135 42C144.721 50.4489 128.209 65.1791 120 59L124 57L122 58L122 57L125 51L127 52L126 49L129 49L128 46L129 44L132 41C124.943 40.25 110.143 42.7594 104.418 38.9722C100.828 36.5974 99.616 29.8338 98.3333 26C93.9542 12.9105 89.7133 -1.25746 73 0.0933533C69.2358 0.397583 65.8939 1.71483 63.0432 4.22453C59.9529 6.94519 58.1518 10.1222 57 14z"/>
<path style="fill:#47714d; stroke:none;" d="M81 0L81 1C92.5561 4.92856 95.4715 17.6437 98.9969 28C100.086 31.2008 100.845 36.8291 103.702 38.9722C106.752 41.2598 113.395 40 117 40C129.95 40 147.114 39.9251 150.61 56C155.054 76.4364 129.262 78.4238 122.068 92.2894C120.009 96.2575 123.438 103.088 124.659 107C126.626 113.302 130.453 121.316 129.493 128C127.682 140.61 113.566 148.963 102 142.951C96.4109 140.045 91.7287 135.71 86 133C86 141.865 87.8939 151.117 80 157L80 158L517 158L517 157C449.088 151.453 453.817 43.9856 521 41.0394C543.413 40.0565 565.098 47.4245 577.899 67C600.167 101.053 580.574 151.397 539 157L539 158L607 158L607 0L312 0L312 1C329.977 7.96533 327.255 34.828 307 35.7215C286.151 36.6411 282.225 8.82355 300 1L279 0L235 0L81 0z"/>
<path style="fill:#493d8d; stroke:none;" d="M300 0.638123C277.988 7.0027 289.219 41.4383 311 35.2106C335.163 28.3019 323.639 -6.19685 300 0.638123M607 0L607 158L612 158L612 0L607 0z"/>
<path style="fill:#47714d; stroke:none;" d="M612 0L612 158L893 158L893 157L875 143C886.25 139.672 889.521 148.658 899 153L899 156L896 157L896 158L1100 158L1100 47C1087.63 47 1085.46 40.6662 1076 34L1076 47L1066 47L1067 0L612 0z"/>
<path style="fill:#493d8d; stroke:none;" d="M1066 47L1076 47L1076 34C1084.42 42.4228 1087.84 47 1100 47C1097.22 40.4252 1091.33 33.3875 1085 30C1088.02 27.3672 1097.78 21.9392 1097.08 17.2747C1095.56 7.24048 1078.21 23.066 1076 25C1076 18.3762 1077.57 9.50616 1075.68 3.14815C1074.59 -0.513657 1068.52 -1.15883 1066.74 2.3179C1064.89 5.9485 1066 12.0359 1066 16L1066 47z"/>
<path style="fill:#47714d; stroke:none;" d="M1075 0L1076 25C1080.62 22.1101 1084.78 16.762 1090 15.1034C1092.15 14.4206 1096.89 14.779 1096.37 18.1188C1095.66 22.6496 1087.81 26.5216 1085 30L1100 45L1100 0L1075 0z"/>
<path style="fill:#493d8d; stroke:none;" d="M85 2L86 3L85 2M63 3L64 4L63 3M632 47L642 47L642 33C646.244 33 650.846 33.4769 655 32.4668C665.87 29.8237 668.983 15.1538 661.606 7.22453C657.276 2.57008 650.81 3.00037 645 3C641.48 2.99977 635.321 1.88197 633.028 5.3179C631.046 8.28703 632 13.6107 632 17L632 47M951 47C959.387 47 972.353 49.4276 979.907 45.3117C988.373 40.698 987.646 28.5334 979 25C991.281 11.1797 977.667 3.00087 964 3C960.694 2.99979 955.188 2.01884 952.603 4.60339C950.019 7.18808 951 12.6941 951 16L951 47M62 4L63 5L62 4M61 5L62 6L61 5M875 14L870 14C869.39 18.6409 870.098 21.1993 875 22C875 37.4077 878.016 55.4752 898 45L886.603 37.6674L885 22C897.711 21.9986 897.525 14.0096 885 14L885 5C877.836 5.02528 875.088 6.52042 875 14M60 6L61 7L60 6M181 156L215 156L215 98L253 98C257.058 98 264.05 99.3184 267.581 96.9722C275.181 91.9231 273.34 73.5663 265.956 69.4421C253.318 62.3835 229.159 67 215 67C215 57.9407 212.278 44.5681 221.019 38.7276C238.449 27.081 280.819 51.4154 277.906 18C276.727 4.48024 263.007 6 253 6C232.09 6 201.006 0.384903 186.789 20.0039C178.216 31.8327 181 48.2124 181 62L181 156z"/>
<path style="fill:#bb2028; stroke:none;" d="M57 15L64 21L62 20L62 21L66 21L70 29L73 30C77.7606 18.6438 64.6388 -2.16191 57 15z"/>
<path style="fill:#493d8d; stroke:none;" d="M58 9L59 10L58 9M57 11L58 12L57 11z"/>
<path style="fill:#47714d; stroke:none;" d="M642 11L642 25C657.844 24.9546 657.861 11.0105 642 11M961 11L961 21C975.762 20.8778 975.895 11.0016 961 11z"/>
<path style="fill:#493d8d; stroke:none;" d="M93 12L94 13L93 12M690 26C684.273 26 677.212 25.0856 672.058 28.1397C666.27 31.5692 665.599 41.1443 671.144 45.1566C678.598 50.55 690.604 47.6626 699 47C699 37.8469 702.491 20.7492 692.957 15.4421C689.182 13.3407 664.63 10.9856 671.047 20.6396C673.335 24.0811 678.865 20.4207 681.999 20.5293C685.718 20.6582 687.852 23.3356 690 26M740 47L749 47L749 22C764.592 20.0845 761 35.8784 761 47L771 47C771 41.7135 768.25 20.6807 777.96 21.9213C785.89 22.9345 783 41.5969 783 47L793 47C793 39.066 794.82 28.4809 791.852 21.0039C787.744 10.6583 773.865 11.2676 767 18C762.554 12.9099 744.299 9.01605 740.603 17.2284C737.242 24.6983 740 38.8263 740 47M829 46L827 39C819.085 39.6246 814.367 40.6576 808 35C813.853 35 822.974 36.677 827.721 32.4861C840.378 21.3129 818.174 10.1581 808 14.1481C797.01 18.4583 793.792 36.6259 803.188 44.1998C810.369 49.9878 820.841 48.2928 829 46M836 47L845 47L845 22C861.081 20.0138 858 35.2843 858 47L868 47C868 38.9396 870.139 27.2211 865.911 20.0154C861.849 13.095 842.418 8.54863 837.028 16.4329C833.109 22.1642 835.427 40.1389 836 47M922 37C916.478 42.2134 909.3 39.4263 903 37L900 44C907.262 47.8268 917.048 49.89 924.985 46.6559C931.168 44.1359 934.466 35.7259 929.427 30.419C924.999 25.7544 915.819 26.1245 910 24L910 22C914.265 20.9847 925.99 24.2446 928.392 22.2639C931.902 19.3696 927.734 15.5055 924.981 14.483C919.6 12.4845 912.363 12.1926 907.04 14.483C897.94 18.3993 898.72 30.3777 908.001 33.4668C912.593 34.9953 917.411 35.3246 922 37M1011 27C1001.52 24.198 979.066 32.1034 991.573 44.3511C998.248 50.8885 1012.75 48.042 1021 47C1021 37.8182 1024.04 21.8182 1014.96 16.0085C1010.92 13.4266 987.833 10.1713 992.623 20.6674C994.105 23.9153 998.585 21.4478 1001 21.0139C1006.15 20.0877 1009.34 22.2672 1011 27M1027 47L1037 47L1037 22C1052.76 20.151 1050 35.7645 1050 47L1059 47C1059 39.2092 1061.28 27.0818 1057.54 20.0432C1053.54 12.5015 1033.59 8.99855 1028.03 16.6528C1023.79 22.4798 1027 39.8669 1027 47M56 14L57 15L56 14M702 51L700 58C718.086 64.7733 724.879 45.5346 730.719 32C732.373 28.1668 737.047 21.4248 736.068 17.1481C735.213 13.4145 729.974 13.6965 727.649 15.7423C723.352 19.5234 721.247 28.6131 720 34C718.1 30.7443 716.421 27.3836 714.756 24C713.391 21.2243 712.3 16.9532 709.582 15.1798C705.689 12.6396 700.796 15.3235 701.452 20.0046C702.633 28.4354 725.017 53.162 702 51z"/>
<path style="fill:#e42a2f; stroke:none;" d="M56 15C54.6891 20.6637 51.4212 36.8888 45.7755 39.3966C32.2794 45.3913 11.6753 33.2101 2.41744 50.0039C-10.6247 73.6622 22.0182 77.4177 28.8789 93.0394C30.5751 96.9018 27.5161 102.272 26.4244 106C22.3666 119.857 15.889 140.995 37 144.671C40.7141 145.318 44.3484 144.678 48 144L48 143C39.5599 140.623 39.7498 134.196 41.8634 127C45.0957 115.996 51.532 104.673 51.956 93C52.4697 78.8595 38.6732 70.6466 28 64L30 67L27 67L26 70L14 73L13 76C7.58213 73.8762 1.37826 67.3155 9.05787 63.0247C14.2103 60.1459 22.0868 61.5697 27 64C27 60.6524 32.1982 62.0489 35 61.8333C42.5366 61.2536 52.1404 62.3584 59 58.8333C68.7635 53.816 71.0146 38.2878 74 29L70 29L66 21L62 21L62 20L64 21L56 15M60 15L61 16L60 15z"/>
<path style="fill:#493d8d; stroke:none;" d="M55 17L56 18L55 17M95 17L96 18L95 17z"/>
<path style="fill:#bb2028; stroke:none;" d="M60 18L61 19L60 18z"/>
<path style="fill:#493d8d; stroke:none;" d="M54 20L55 21L54 20z"/>
<path style="fill:#47714d; stroke:none;" d="M808 28C810 28 812.004 28.0339 814.004 27.9954C828.313 27.7196 811.256 12.0065 808 28z"/>
<path style="fill:#493d8d; stroke:none;" d="M53 23L54 24L53 23z"/>
<path style="fill:#e42a2f; stroke:none;" d="M67 23L68 24L67 23z"/>
<path style="fill:#493d8d; stroke:none;" d="M97 23L98 24L97 23z"/>
<path style="fill:#e42a2f; stroke:none;" d="M69 25L70 26L69 25z"/>
<path style="fill:#493d8d; stroke:none;" d="M75 25L76 26L75 25z"/>
<path style="fill:#e42a2f; stroke:none;" d="M74.3333 26.6667L74.6667 27.3333L74.3333 26.6667z"/>
<path style="fill:#47714d; stroke:none;" d="M75 26C72.0123 36.9455 68.5721 52.8904 58 58.9105C49.5835 63.7031 35.4102 62 26 62L26 63C34.8321 68.5 49.5322 76.9636 51.6597 88C53.7069 98.6199 47.1122 109.794 45 120C54.2583 114.726 63.7316 103.568 75 103.267C86.2008 102.968 96.7874 114.871 106 120C103.577 109.431 95.0599 94.67 100.456 83.9992C105.454 74.1158 117.266 70.2728 124 62C111.729 63.4063 93.3883 62.9218 85.6489 51.9961C80.2267 44.3416 79.9507 33.8673 75 26z"/>
<path style="fill:#493d8d; stroke:none;" d="M98 26L99 27L98 26M51 28L52 29L51 28M74 28L75 29L74 28M76 28L77 29L76 28M99 29L100 30L99 29z"/>
<path style="fill:#47714d; stroke:none;" d="M961 29L961 39C964.181 39 983.174 36.9232 973.562 30.179C970.411 27.9674 964.653 29 961 29z"/>
<path style="fill:#493d8d; stroke:none;" d="M50 31L51 32L50 31z"/>
<path style="fill:#bb2028; stroke:none;" d="M72 31L73 32L72 31z"/>
<path style="fill:#493d8d; stroke:none;" d="M77 31L78 32L77 31M100 32L101 33L100 32z"/>
<path style="fill:#47714d; stroke:none;" d="M689 41L689 33C675.577 33.0015 675.577 40.9985 689 41M1011 41L1011 33C997.046 33.0015 997.034 41 1011 41z"/>
<path style="fill:#493d8d; stroke:none;" d="M49 34L50 35L49 34M78 34L79 35L78 34M48 37L49 38L48 37M79 37L80 38L79 37M17 40L17 41L23 41L17 40M24 40L25 41L24 40M126 40L127 41L126 40M128 40L128 41L133 41L128 40M342 156L376 156L376 96C376 90.0114 373.631 77.521 377.028 72.419C384.665 60.9476 410.183 69.3172 415.164 79.0008C419.226 86.8973 418 96.4176 418 105L418 156L452 156L452 102C452 88.7406 452.446 74.9006 445.662 63C430.753 36.8479 393.767 37.247 368 42.3997C361.484 43.7027 347.276 44.9718 343.028 50.6991C339.021 56.1012 342 72.375 342 79L342 156M12 41L13 42L12 41z"/>
<path style="fill:#bb2028; stroke:none;" d="M132 41L129 44L128 46L129 49L126 49L127 52L125 51L125 52L122 58L124 57L120 59C127.739 67.8546 150.475 44.8175 132 41z"/>
<path style="fill:#493d8d; stroke:none;" d="M516 41.4282C471.765 47.7797 452.298 102.454 479.518 137C493.038 154.159 516.914 160.712 538 157.7C580.809 151.584 601.623 100.257 577.226 65C563.624 45.3419 538.916 38.1379 516 41.4282M10 42L11 43L10 42M69 42L70 43L69 42M81 42L82 43L81 42z"/>
<path style="fill:#bb2028; stroke:none;" d="M130 42L131 43L130 42z"/>
<path style="fill:#493d8d; stroke:none;" d="M140 42L141 43L140 42M8 43L9 44L8 43M143 44L144 45L143 44M290 156L323 156L323 46C314.068 44.6868 299.786 40.2635 292.653 48.3904C287.075 54.7461 290 70.0685 290 78L290 156M68 45L69 46L68 45M82 45L83 46L82 45z"/>
<path style="fill:#bb2028; stroke:none;" d="M127.333 47.6667L127.667 48.3333L127.333 47.6667z"/>
<path style="fill:#493d8d; stroke:none;" d="M67 48L68 49L67 48M83 48L84 49L83 48M147 48L148 49L147 48M66 50L67 51L66 50M1 51L2 52L1 51M65 52L66 53L65 52M85 52L86 53L85 52z"/>
<path style="fill:#bb2028; stroke:none;" d="M124 53L123 55L124 53z"/>
<path style="fill:#493d8d; stroke:none;" d="M0 54L1 55L0 54M150 54L151 55L150 54M59 58L60 59L59 58z"/>
<path style="fill:#bb2028; stroke:none;" d="M121 58L122 59L121 58z"/>
<path style="fill:#493d8d; stroke:none;" d="M57 59L58 60L57 59M54 60L55 61L54 60z"/>
<path style="fill:#bb2028; stroke:none;" d="M13 76L14 73L26 70L30 67C25.4119 61.3895 13.672 58.2076 7.3179 63.6026C1.47803 68.561 7.54073 75.0833 13 76z"/>
<path style="fill:#493d8d; stroke:none;" d="M36 61L37 62L36 61M38 61L38 62L44 62L38 61M107 61L107 62L114 62L107 61M120 62L121 63L120 62M122 62L123 63L122 62M124 62L125 63L124 62z"/>
<path style="fill:#7d3151; stroke:none;" d="M12 63L13 64L12 63z"/>
<path style="fill:#493d8d; stroke:none;" d="M27 63L28 64L27 63M123 63L124 64L123 63z"/>
<path style="fill:#7d3151; stroke:none;" d="M9 64L10 65L9 64z"/>
<path style="fill:#493d8d; stroke:none;" d="M0 65L1 66L0 65M120 65L121 66L120 65M150 65L151 66L150 65z"/>
<path style="fill:#47714d; stroke:none;" d="M524 65.4398C486.864 71.1086 491.698 138.831 531 133.231C567.881 127.976 562.613 59.5456 524 65.4398M0 66L0 158L72 158L72 157C62.8014 152.11 65 141.99 65 133C59.3558 135.808 54.6733 140.237 49 143.004C45.6136 144.655 41.7472 145.341 38 144.786C35.1064 144.358 32.3656 143.064 30.0039 141.362C9.35003 126.476 33.9929 110.01 29.223 93.0903C28.0578 88.9571 22.2143 86.0373 19 83.6265C11.7071 78.1569 5.93862 72.7967 0 66z"/>
<path style="fill:#493d8d; stroke:none;" d="M31 66L32 67L31 66M119 66L120 67L119 66z"/>
<path style="fill:#bb2028; stroke:none;" d="M30 67L31 68L30 67M27 68L28 69L27 68z"/>
<path style="fill:#493d8d; stroke:none;" d="M116 68L117 69L116 68M35 69L36 70L35 69M115 69L116 70L115 69z"/>
<path style="fill:#bb2028; stroke:none;" d="M21 71L22 72L21 71z"/>
<path style="fill:#493d8d; stroke:none;" d="M112 71L113 72L112 71M4 72L5 73L4 72M39 72L40 73L39 72M111 72L112 73L111 72M146 72L147 73L146 72M5 73L6 74L5 73z"/>
<path style="fill:#bb2028; stroke:none;" d="M18 73L19 74L18 73z"/>
<path style="fill:#493d8d; stroke:none;" d="M145 73L146 74L145 73z"/>
<path style="fill:#bb2028; stroke:none;" d="M14 74L15 75L14 74z"/>
<path style="fill:#493d8d; stroke:none;" d="M108 74L109 75L108 74M144 74L145 75L144 74M43 75L44 76L43 75M107 75L108 76L107 75M10 77L11 78L10 77M140 77L141 78L140 77M734 81L750 97L703 97C696.225 97 687.607 98.4248 681.043 96.6821C671.542 94.1595 668.976 80.6622 657 79.1852C645.366 77.7504 634.216 84.4406 636 97L632 97C632.053 101.434 632.194 104.198 637 105L637 139L647 139L647 105L653 105C653 119.064 655.308 132.212 673 128L673 139L683 139C683 133.699 681.597 126.058 683.603 121.094C685.125 117.328 691.886 114.418 693.067 120.059C693.866 123.874 690.12 128.455 689 132L697 137C705.811 122.459 704.994 103.764 683 109L683 105L732 105L732 111C726.93 111 710.312 108.342 707.032 112.603C701.937 119.221 720.933 137.984 721 119L732 119L732 139L742 139L742 105L750 105L750 139L760 139L760 105L765 105L765 97C751.822 94.9666 748.605 72.39 734 81M806 97C799.379 97 790.503 95.428 784.148 97.3179C779.338 98.7486 781.545 103.785 785 105C785 119.155 788.866 134.652 807 127L807 139L817 139L817 105L827 105L827 116C812.985 117.119 835.832 138.996 837 124L847 124L847 139L857 139L857 105L883 105L883 109C868.687 109.009 853.631 121.929 869.043 134.606C878.113 142.067 891.337 139.474 900 133L900 132C891.642 125.493 886.934 133.97 879.005 129.971C873.632 127.262 871.35 120.407 878.019 117.742C882.373 116.003 888.386 117 893 117L893 105L914 105L914 114L907 108L899 113L899 114C905.786 122.551 914.831 143.875 927 136L917 122L924 115L925 115C926.536 120.109 928.686 121.826 934 122C934 126.183 932.726 132.867 934.603 136.682C936.173 139.873 942.827 139.872 944.397 136.682C948.093 129.17 945 113.37 945 105L950 105L950 97L889 97C880.033 97 868.704 98.8644 860 96.6821C848.517 93.8032 844.144 71.3335 831 81L831 82L847 97C838.799 97 825.786 99.5 818.17 96.3966C810.397 93.2294 807.041 82.778 799.961 78.6582C796.62 76.7145 790.4 79.5039 792.752 83.8449C795.379 88.6951 802.072 93.0724 806 97M985 79L991 91L976 82L972 90L987 96L987 97C981.253 97 973.67 95.6782 968.148 97.3179C964.963 98.2637 964.103 102.812 967.318 104.397C974.459 107.916 984.293 101.919 991 107C984.931 105.555 978.147 105.153 973.055 109.394C964.685 116.365 967.833 129.008 978 132.196C982.289 133.541 986.697 132.799 991 132L991 139L1001 139L1001 105C1007.63 105 1024.11 102.006 1028 108C1024.27 107.307 1020.74 106.715 1017 107.789C996.836 113.587 1010.17 138.531 1028 132L1028 139L1038 139C1038 133.594 1035.52 120.259 1041.15 117.198C1044.6 115.319 1048.74 118.031 1048.26 121.99C1047.84 125.416 1044.65 127.391 1042 129L1047 137C1066.78 129.334 1058.74 101.871 1038 108C1041.69 102.308 1055.77 105 1062 105L1062 97C1044.96 97 1021.46 101.272 1005.11 96.6821C993.293 93.3668 1001.43 74.6642 985 79M13 79L14 80L13 79M853 79L853 88L862 88C861.974 80.6768 860.323 79.0259 853 79M1001 79L1001 88L1010 88L1010 79L1001 79M14 80L15 81L14 80M136 80L137 81L136 80M101 81L102 82L101 81M18 83L19 84L18 83M50 83L51 84L50 83M100 83L101 84L100 83M132 83L133 84L132 83M99 85L100 86L99 85M22 86L23 87L22 86M51 86L52 87L51 86M128 86L129 87L128 86z"/>
<path style="fill:#47714d; stroke:none;" d="M646 97L669 97C663.282 87.9355 646.192 80.7983 646 97z"/>
<path style="fill:#493d8d; stroke:none;" d="M26 89L27 90L26 89M124 89L125 90L124 89M123 90L124 91L123 90M98 91L99 92L98 91z"/>
<path style="fill:#47714d; stroke:none;" d="M991 91L992 92L991 91z"/>
<path style="fill:#493d8d; stroke:none;" d="M120 92L121 93L120 92M29.3333 95.6667L29.6667 96.3333L29.3333 95.6667M121 96L122 97L121 96M51 97L52 98L51 97M99 97L100 98L99 97M28 99L29 100L28 99M122 99L123 100L122 99M50 100L51 101L50 100M27 102L28 103L27 102M48 144L65 133C65 138.747 63.3137 147.737 66.179 152.895C69.8711 159.542 81.2194 159.709 84.821 152.956C87.6385 147.673 86 138.839 86 133L103 144C102.082 139.41 106.028 143.972 109 141C112.653 137.347 109.566 123.849 107 120C105.5 117.751 99.3276 115.552 97 114C87.8803 107.92 80.0011 99.9996 68 104C63.1888 105.604 59.3012 110.133 55 113C52.4105 114.726 45.6637 117.504 44 120C42.2314 122.653 38.8394 134.518 40 138C41.6965 143.089 48.8406 140.638 48 144M49 104L50 105L49 104M101 104L102 105L101 104M26 105L27 106L26 105z"/>
<path style="fill:#47714d; stroke:none;" d="M663 105C663 108.897 661.624 116.408 664.742 119.377C672.186 126.465 673 108.084 673 105L663 105M795 105C795 108.859 793.782 115.34 796.028 118.681C803.306 129.512 807 108.858 807 105L795 105M837 105L837 116L847 116L847 105L837 105M924 105L924 114L934 114L934 105L924 105z"/>
<path style="fill:#493d8d; stroke:none;" d="M124 106L125 107L124 106M48 107L49 108L48 107M102 107L103 108L102 107M25 109L26 110L25 109M125 109L126 110L125 109z"/>
<path style="fill:#47714d; stroke:none;" d="M990 109L989 115L984 114L991 121L990 109z"/>
<path style="fill:#493d8d; stroke:none;" d="M47 110L48 111L47 110M103 110L104 111L103 110z"/>
<path style="fill:#47714d; stroke:none;" d="M1027 111L1026 116C1021.97 115.472 1012.62 119.578 1019.32 123.806C1027.33 128.859 1028.97 115.683 1027 111z"/>
<path style="fill:#493d8d; stroke:none;" d="M24 112L25 113L24 112M104 114L105 115L104 114M23 115L24 116L23 115M127 116L128 117L127 116M45 117L46 118L45 117M105 117L106 118L105 117z"/>
<path style="fill:#47714d; stroke:none;" d="M978 118C978.769 122.923 981.122 124.631 986 125L978 118z"/>
<path style="fill:#493d8d; stroke:none;" d="M128 119L129 120L128 119z"/>
<path style="fill:#bb2028; stroke:none;" d="M43 121L44 122L43 121z"/>
<path style="fill:#493d8d; stroke:none;" d="M21 122L22 123L21 122z"/>
<path style="fill:#7d3151; stroke:none;" d="M43.3333 122.667L43.6667 123.333L43.3333 122.667M107.333 122.667L107.667 123.333L107.333 122.667z"/>
<path style="fill:#493d8d; stroke:none;" d="M129 123L130 124L129 123z"/>
<path style="fill:#bb2028; stroke:none;" d="M42 124L43 125L42 124z"/>
<path style="fill:#7d3151; stroke:none;" d="M42.3333 125.667L42.6667 126.333L42.3333 125.667z"/>
<path style="fill:#bb2028; stroke:none;" d="M108 125L109 126L108 125z"/>
<path style="fill:#7d3151; stroke:none;" d="M108 126L109 127L108 126z"/>
<path style="fill:#bb2028; stroke:none;" d="M41 128L42 129L41 128M109 128L110 129L109 128z"/>
<path style="fill:#493d8d; stroke:none;" d="M129 128L130 129L129 128z"/>
<path style="fill:#7d3151; stroke:none;" d="M41 129L42 130L41 129M109 129L110 130L109 129z"/>
<path style="fill:#bb2028; stroke:none;" d="M40 131L41 132L40 131z"/>
<path style="fill:#493d8d; stroke:none;" d="M22 132L23 133L22 132z"/>
<path style="fill:#7d3151; stroke:none;" d="M40 132L41 133L40 132M110.333 132.667L110.667 133.333L110.333 132.667z"/>
<path style="fill:#493d8d; stroke:none;" d="M128 132L129 133L128 132M24 136L25 137L24 136M126 136L127 137L126 136z"/>
<path style="fill:#7d3151; stroke:none;" d="M110 137L111 138L110 137z"/>
<path style="fill:#bb2028; stroke:none;" d="M40 138L41 139L40 138M110 138L111 139L110 138z"/>
<path style="fill:#7d3151; stroke:none;" d="M109 139L110 140L109 139z"/>
<path style="fill:#493d8d; stroke:none;" d="M875 143C876.964 149.77 892.39 158.641 899 156L899 153C890.686 147.315 885.564 138.354 875 143z"/>
<path style="fill:#7d3151; stroke:none;" d="M43 141L44 142L43 141M107 141L108 142L107 141z"/>
<path style="fill:#bb2028; stroke:none;" d="M44 142L45 143L44 142z"/>
<path style="fill:#7d3151; stroke:none;" d="M45 142L45 143L49 143L45 142M102 142L102 143L106 143L102 142z"/>
<path style="fill:#bb2028; stroke:none;" d="M106 142L107 143L106 142z"/>
<path style="fill:#493d8d; stroke:none;" d="M120 142L121 143L120 142M118 143L119 144L118 143M35 144L36 145L35 144M45 144L46 145L45 144M115 144L116 145L115 144z"/>
</svg>
