<?xml version="1.0" standalone="no"?>
<!DOCTYPE svg PUBLIC "-//W3C//DTD SVG 20010904//EN"
 "http://www.w3.org/TR/2001/REC-SVG-20010904/DTD/svg10.dtd">
<svg version="1.0" xmlns="http://www.w3.org/2000/svg"
 width="512.000000pt" height="512.000000pt" viewBox="0 0 512.000000 512.000000"
 preserveAspectRatio="xMidYMid meet">

<g transform="translate(0.000000,512.000000) scale(0.100000,-0.100000)"
fill="#000000" stroke="none">
<path d="M2360 4339 c-609 -69 -1150 -455 -1414 -1009 -185 -388 -226 -834
-114 -1243 l21 -77 33 112 c181 630 652 1094 1237 1220 136 29 398 31 530 5
255 -51 529 -184 709 -343 27 -24 53 -44 58 -44 5 0 19 19 31 43 74 146 196
278 306 330 58 27 79 32 144 32 101 -1 176 -37 278 -136 82 -80 83 -77 18 66
-265 581 -808 975 -1439 1044 -111 13 -288 12 -398 0z"/>
<path d="M3430 2934 c0 -4 16 -57 36 -118 46 -139 46 -177 1 -289 -89 -218
-205 -371 -555 -728 -96 -98 -106 -112 -131 -182 l-26 -76 -102 43 c-122 52
-249 120 -361 193 -72 46 -81 50 -64 26 61 -86 445 -423 481 -423 5 0 11 -28
15 -62 12 -107 33 -157 95 -218 98 -97 216 -139 417 -147 103 -4 148 -2 209
12 42 9 78 15 79 13 4 -4 96 -316 96 -323 0 -3 -69 -5 -153 -5 l-153 0 -33
112 c-18 62 -36 116 -40 120 -3 4 -46 -6 -94 -23 -120 -41 -297 -77 -451 -90
-221 -18 -506 18 -724 93 -50 17 -93 29 -95 27 -6 -8 -67 -214 -67 -226 0 -10
-38 -13 -155 -13 -85 0 -155 4 -155 8 0 5 25 91 55 192 30 101 55 184 55 185
0 1 -25 19 -56 39 l-56 38 -87 -53 c-144 -88 -270 -186 -400 -314 l-123 -121
73 -59 c183 -148 481 -323 500 -294 7 12 23 115 34 222 l6 57 1058 0 1058 0 7
-57 c12 -113 28 -210 35 -222 18 -29 311 142 494 289 l79 63 -99 99 c-111 113
-222 205 -335 280 -43 28 -78 53 -78 54 0 2 45 26 101 55 121 62 300 180 429
284 120 95 260 223 260 237 0 31 -463 644 -659 873 -159 185 -421 452 -421
429z"/>
<path d="M2609 2765 c-20 -7 -54 -24 -75 -38 -28 -18 -132 -47 -361 -103 -178
-44 -323 -81 -323 -84 0 -3 147 -41 328 -84 267 -65 333 -84 362 -107 157
-120 380 -11 380 187 0 167 -160 285 -311 229z m122 -25 c10 -6 26 -24 35 -41
45 -89 -66 -171 -143 -105 -22 19 -28 32 -28 66 0 34 6 47 28 66 30 25 75 31
108 14z"/>
<path d="M4077 2680 c-70 -83 -48 -276 36 -311 24 -10 32 -9 55 8 15 10 36 38
47 61 11 22 33 54 48 70 l27 28 -24 23 c-14 13 -36 47 -50 77 -39 81 -94 99
-139 44z m97 -32 c7 -29 6 -42 -8 -62 -30 -47 -66 -22 -66 46 0 68 58 80 74
16z"/>
</g>
</svg>
