<?xml version="1.0" standalone="yes"?>
<svg xmlns="http://www.w3.org/2000/svg" width="3264" height="3264">
<path style="fill:#ffffff; stroke:none;" d="M0 0L0 3264L3264 3264L3264 0L0 0z"/>
<path style="fill:#f5b2fe; stroke:none;" d="M1400 1044L1402 1044L1406 1070L1407 1070C1406.99 1062.44 1407.33 1046.04 1400 1042C1360.99 1098.08 1335.11 1168 1312.46 1232C1261.68 1375.49 1229.12 1523.46 1202.46 1673C1189.51 1745.67 1186.39 1821.01 1165.23 1892C1121.99 2037.07 987.048 2156.21 829 2133.57C799.587 2129.36 770.941 2121 744 2108.46C713.71 2094.36 685.761 2074.44 662.004 2050.99C557.687 1948 540.63 1783.73 565.463 1646C591.727 1500.33 646.147 1362.97 718.138 1234C837.612 1019.96 1007.61 835.9 1213 702.495C1353.69 611.111 1551.32 548.074 1704 646.05C1724.4 659.141 1743.59 676.045 1759.83 694C1861.81 806.713 1889.88 971.671 1899.91 1118C1902.05 1149.23 1903 1180.66 1903 1212C1903 1233.12 1901.39 1255.03 1904 1276C1913.65 1273.27 1920.11 1257.03 1925.31 1249C1941.21 1224.43 1957.78 1200.19 1975.65 1177C2027.41 1109.83 2087.83 1051.32 2174 1035.26C2251.77 1020.77 2341.71 1049.63 2400 1102.17C2440.73 1138.89 2469.74 1188.89 2486.04 1241C2510.87 1320.42 2517.96 1404.25 2519.99 1487C2521.54 1550.67 2517.13 1614.62 2523.17 1678C2535.37 1806.13 2558.6 1935.91 2609.28 2055C2617.06 2073.26 2626.24 2091.57 2637.42 2108C2643.18 2116.45 2652.49 2124.09 2657 2133C2627.06 2138.56 2593.17 2137.19 2563 2134.17C2538 2131.67 2513.45 2126.2 2490 2117.09C2375.37 2072.54 2339.98 1939.69 2323.57 1830C2320.14 1807.03 2316.26 1784.15 2313.83 1761C2311.03 1734.28 2306.76 1707.72 2304.17 1681C2300.92 1647.45 2298.08 1613.18 2292.32 1580C2282.15 1521.42 2277.99 1462.04 2264.1 1404C2260.91 1390.67 2257.91 1377.31 2254.66 1364C2253.89 1360.84 2252.58 1351.7 2248.9 1350.83C2244.25 1349.74 2240.2 1359.06 2238.09 1362C2228.39 1375.57 2219.22 1389.71 2210.6 1404C2174.93 1463.13 2144.58 1524.77 2112.78 1586C2049.23 1708.35 1993.71 1834.62 1924.42 1954C1905.47 1986.66 1885.49 2018.6 1864.52 2050C1851.86 2068.95 1840.02 2090.43 1823 2105.83C1775.32 2148.97 1707.14 2157.47 1646 2145C1539.91 2123.38 1447.38 2049.53 1409.47 1947C1390.9 1896.78 1387.62 1842.76 1394.18 1790C1397.16 1766.08 1406.93 1742.23 1407 1718L1406 1718C1405.75 1748.03 1393.39 1778.98 1390.17 1809C1385.56 1852.1 1391.77 1899.03 1405.26 1940C1441.6 2050.4 1544.39 2133.16 1659 2149.13C1716.76 2157.18 1777.92 2148.4 1823 2108.71C1838.71 2094.88 1849.25 2076.08 1861.02 2059C1885.12 2024.04 1907.12 1987.71 1928.42 1951C2000.19 1827.36 2059.83 1696.76 2123.75 1569C2151.05 1514.44 2179.07 1460.27 2210.6 1408C2218.78 1394.45 2227.44 1381.09 2236.34 1368C2240.13 1362.44 2243.83 1355.01 2250 1352C2258.69 1394.11 2269.62 1435.53 2276.71 1478C2289.73 1555.91 2297.31 1634.63 2306.71 1713C2318.96 1815.02 2327.3 1925.05 2377.63 2017C2386.76 2033.69 2397.39 2049.85 2410.17 2064C2455.37 2114.04 2516.83 2132.6 2582 2137.09C2600.54 2138.37 2618.5 2137.36 2637 2136.09C2644.31 2135.59 2653.46 2136.49 2660 2133L2660 2132C2607.98 2073.15 2584.76 1992.82 2565.52 1918C2540.83 1821.95 2526.37 1723.95 2522.04 1625C2516.38 1495.7 2530.13 1362.95 2486.92 1238C2470.22 1189.69 2446.31 1143.78 2409.2 1107.88C2326.9 1028.29 2196.12 1006.73 2095 1061.12C2037.52 1092.03 1993.66 1146.48 1956.72 1199C1944.66 1216.14 1933.26 1233.66 1921.5 1251C1916.4 1258.53 1912.37 1268.53 1905 1274C1905 1167 1902.71 1057.98 1879.99 953C1865.38 885.54 1844.12 819.224 1809.77 759C1792.32 728.4 1770 700.705 1745 676.004C1728.89 660.084 1709.62 646.107 1690 634.85C1555.85 557.889 1395.42 603.384 1267 669.258C1170.02 719 1082.7 788.13 1004.01 862.91C855.767 1003.79 737.779 1173.45 652.474 1359C628.101 1412.02 608.057 1467.91 592.091 1524C554.935 1654.53 535.708 1793.92 581.078 1925C598.433 1975.14 628.498 2024.15 668 2059.83C753.168 2136.76 877.186 2160.23 983 2113.27C1011.98 2100.41 1039.44 2083.11 1063 2061.83C1118.86 2011.38 1155.44 1942.71 1173.1 1870C1181.74 1834.45 1185.53 1798.16 1190.29 1762C1197.32 1708.52 1206.66 1654.95 1216.8 1602C1243.29 1463.85 1277.23 1326.45 1328.06 1195C1340.77 1162.14 1355.02 1129.35 1371.11 1098C1380.21 1080.26 1392.98 1062.55 1400 1044z"/>
<path style="fill:#d63dff; stroke:none;" d="M1400 1042C1406.36 1047.24 1406.35 1057.3 1407.07 1065C1408.4 1079.04 1411.57 1093.01 1413.28 1107C1420.9 1168.94 1427.31 1230.68 1430.04 1293C1435.09 1408.32 1433.33 1523.32 1419.71 1638C1409.84 1721.15 1382.03 1803.76 1394.17 1888C1414.31 2027.69 1538.37 2140.28 1679 2149.91C1731.09 2153.48 1786.02 2141.39 1825 2104.91C1836.14 2094.48 1843.6 2081.41 1852.21 2069C1868.54 2045.43 1884.36 2021.51 1899.25 1997C1981.29 1861.92 2047.06 1718.06 2117.92 1577C2147.66 1517.8 2177.37 1458.29 2212.43 1402C2220.64 1388.81 2229.05 1375.64 2238.09 1363C2240.08 1360.22 2244.53 1350.22 2248.9 1351.46C2252.89 1352.6 2254.23 1362.53 2255.1 1366C2259.03 1381.59 2262.71 1397.23 2265.8 1413C2278.64 1478.42 2288.13 1543.87 2296.16 1610C2309.77 1722.26 2316.42 1837.3 2349.79 1946C2373.15 2022.07 2418.29 2091.49 2496 2119.56C2548.93 2138.69 2602.09 2135.36 2657 2133C2651.97 2122.21 2641.11 2113.15 2634.51 2103C2622.51 2084.57 2613.2 2064.24 2604.74 2044C2556.68 1928.95 2534.92 1802.41 2523.17 1679C2520.7 1653.04 2521.51 1626.92 2520.87 1601C2517.83 1478.04 2525.95 1348.64 2482.91 1231C2465.28 1182.79 2439.89 1138.33 2402 1103.09C2340.11 1045.54 2239.34 1016.93 2157 1038.58C2075.88 1059.92 2019.34 1117.71 1970.37 1183C1954.56 1204.09 1939.63 1225.87 1925.31 1248C1919.65 1256.74 1913.67 1271.45 1904 1276C1901.39 1255.36 1903 1233.8 1903 1213C1903 1181.07 1902.09 1148.82 1899.91 1117C1889.88 970.67 1861.81 805.713 1759.83 693C1743.62 675.079 1724.38 658.43 1704 645.414C1551.23 547.826 1352.56 611.2 1212 702.495C1006.98 835.657 837.394 1019.36 718.138 1233C646.147 1361.97 591.727 1499.33 565.463 1645C545.629 1755 551.251 1882.28 608.424 1981C631.284 2020.47 660.78 2055.42 698 2082.09C804.016 2158.06 949.985 2151.2 1050.91 2069.9C1174.97 1969.96 1182.26 1809.01 1204.7 1664C1229.9 1501.19 1269.49 1336.06 1331.31 1183C1351.08 1134.03 1376.91 1089.21 1400 1042z"/>
<path style="fill:#b2b2b2; stroke:none;" d="M1404.33 1048.67L1404.67 1049.33L1404.33 1048.67M1405.33 1052.67L1405.67 1053.33L1405.33 1052.67M1406.33 1059.67L1406.67 1060.33L1406.33 1059.67M1407 1068L1407 1071L1408 1071L1407 1068z"/>
<path style="fill:#f5b2fe; stroke:none;" d="M1407 1071L1408 1081L1409 1081L1407 1071z"/>
<path style="fill:#b2b2b2; stroke:none;" d="M1408 1073L1409 1074L1408 1073M1409 1079L1409 1082L1410 1082L1409 1079z"/>
<path style="fill:#f5b2fe; stroke:none;" d="M1409 1082L1409 1089L1410 1089L1409 1082z"/>
<path style="fill:#b2b2b2; stroke:none;" d="M1410 1088L1410 1091L1411 1091L1410 1088z"/>
<path style="fill:#f5b2fe; stroke:none;" d="M1410 1091L1419 1172L1420 1172L1414.13 1115L1410 1091z"/>
<path style="fill:#b2b2b2; stroke:none;" d="M1412 1099L1413 1100L1412 1099M1413 1108L1413 1111L1414 1111L1413 1108M1414 1117L1415 1118L1414 1117M1415 1123L1416 1124L1415 1123M1416.33 1131.67L1416.67 1132.33L1416.33 1131.67M1900 1140L1900 1144L1901 1144L1900 1140M1417.33 1142.67L1417.67 1143.33L1417.33 1142.67M1418 1148L1419 1149L1418 1148M1901 1156L1901 1160L1902 1160L1901 1156M1419 1157L1419 1160L1420 1160L1419 1157M1420 1169L1420 1174L1421 1174L1420 1169M1902 1171L1902 1178L1903 1178L1902 1171z"/>
<path style="fill:#f5b2fe; stroke:none;" d="M1420 1174L1422 1200L1423 1200L1420 1174z"/>
<path style="fill:#b2b2b2; stroke:none;" d="M1421.33 1178.67L1421.67 1179.33L1421.33 1178.67M1422.33 1183.67L1422.67 1184.33L1422.33 1183.67M1423 1198L1423 1204L1424 1204L1423 1198z"/>
<path style="fill:#f5b2fe; stroke:none;" d="M1423 1204L1428.91 1284L1432 1442L1423 1596L1424 1596C1431.42 1501.98 1435.17 1408.39 1431.04 1314C1430.02 1290.65 1428.06 1267.31 1427.04 1244C1426.51 1232.04 1428.26 1214.94 1423 1204z"/>
<path style="fill:#b2b2b2; stroke:none;" d="M1424.33 1207.67L1424.67 1208.33L1424.33 1207.67M1425 1217L1426 1218L1425 1217M1426 1230L1426 1234L1427 1234L1426 1230M1427 1248L1428 1249L1427 1248M1428 1256L1429 1257L1428 1256M1903 1264L1904 1265L1903 1264M1903 1267L1904 1268L1903 1267M1903 1272L1904 1273L1903 1272M1429 1273L1429 1277L1430 1277L1429 1273M1430 1297L1430 1302L1431 1302L1430 1297M1431 1315L1432 1316L1431 1315M1431.33 1317.67L1431.67 1318.33L1431.33 1317.67M1432 1343L1432 1347L1433 1347L1432 1343M2252 1357L2253 1358L2252 1357M2253 1360L2254 1361L2253 1360M2255.33 1367.67L2255.67 1368.33L2255.33 1367.67M2256 1372L2257 1373L2256 1372M2258 1379L2259 1380L2258 1379M2259 1385L2260 1386L2259 1385M2260 1388L2261 1389L2260 1388M2261.33 1391.67L2261.67 1392.33L2261.33 1391.67M2262 1398L2263 1399L2262 1398M2264 1405L2265 1406L2264 1405M2265.33 1411.67L2265.67 1412.33L2265.33 1411.67M2266 1416L2267 1417L2266 1416M2268 1425L2269 1426L2268 1425M2269 1431L2270 1432L2269 1431M2271 1440L2272 1441L2271 1440M2272 1447L2273 1448L2272 1447M2273 1451L2274 1452L2273 1451M2274 1456L2275 1457L2274 1456M1432 1458L1432 1465L1433 1465L1432 1458M2275 1463L2275 1466L2276 1466L2275 1463M2276 1469L2277 1470L2276 1469M2277 1472L2278 1473L2277 1472M2278 1481L2279 1482L2278 1481M1431 1485L1431 1489L1432 1489L1431 1485M2279 1487L2280 1488L2279 1487M2281.33 1498.67L2281.67 1499.33L2281.33 1498.67M1430 1503L1430 1508L1431 1508L1430 1503M2282 1506L2283 1507L2282 1506M2283 1511L2284 1512L2283 1511M2284 1517L2285 1518L2284 1517M2285 1526L2285 1529L2286 1529L2285 1526M1429 1527L1429 1530L1430 1530L1429 1527M2286 1533L2287 1534L2286 1533M2287.33 1538.67L2287.67 1539.33L2287.33 1538.67M1428 1546L1429 1547L1428 1546M2288 1548L2289 1549L2288 1548M1427 1554L1428 1555L1427 1554M2289.33 1554.67L2289.67 1555.33L2289.33 1554.67M2290 1561L2291 1562L2290 1561M1426 1568L1426 1571L1427 1571L1426 1568M2291 1569L2291 1574L2292 1574L2291 1569M2292.33 1580.67L2292.67 1581.33L2292.33 1580.67M1425.33 1582.67L1425.67 1583.33L1425.33 1582.67M1424.33 1591.67L1424.67 1592.33L1424.33 1591.67M2294.33 1593.67L2294.67 1594.33L2294.33 1593.67M1423 1596L1423 1601L1424 1601L1423 1596z"/>
<path style="fill:#f5b2fe; stroke:none;" d="M1422 1599L1420 1624L1421 1624L1422 1599z"/>
<path style="fill:#b2b2b2; stroke:none;" d="M2295 1604L2295 1607L2296 1607L2295 1604M2296 1612L2297 1613L2296 1612M1422 1614L1423 1615L1422 1614M2297 1618L2298 1619L2297 1618M1421.33 1619.67L1421.67 1620.33L1421.33 1619.67M1420 1624L1420 1629L1421 1629L1420 1624M2520 1625L2521 1626L2520 1625z"/>
<path style="fill:#f5b2fe; stroke:none;" d="M1419 1626L1410 1698L1411 1698C1414.87 1683.03 1414.8 1667.18 1417.46 1652C1418.78 1644.52 1422.03 1633.22 1419 1626z"/>
<path style="fill:#b2b2b2; stroke:none;" d="M2520 1628L2521 1629L2520 1628M2298 1630L2299 1631L2298 1630M1419 1636L1419 1640L1420 1640L1419 1636M2299 1636L2299 1639L2300 1639L2299 1636M2521 1638L2521 1645L2522 1645L2521 1638M2300.33 1644.67L2300.67 1645.33L2300.33 1644.67M1418 1647L1419 1648L1418 1647M1417.33 1651.67L1417.67 1652.33L1417.33 1651.67M2301 1654L2301 1660L2302 1660L2301 1654M2522 1658L2522 1664L2523 1664L2522 1658M1416 1661L1417 1662L1416 1661M2302.33 1665.67L2302.67 1666.33L2302.33 1665.67M1415 1670L1416 1671L1415 1670M2303.33 1671.67L2303.67 1672.33L2303.33 1671.67M1414 1675L1415 1676L1414 1675M2523.33 1680.67L2523.67 1681.33L2523.33 1680.67M1413.33 1681.67L1413.67 1682.33L1413.33 1681.67M2304 1681L2304 1684L2305 1684L2304 1681M2524.33 1688.67L2524.67 1689.33L2524.33 1688.67M1412 1691L1413 1692L1412 1691M2305 1692L2305 1697L2306 1697L2305 1692M1410 1698L1410 1701L1411 1701L1410 1698M2525 1698L2526 1699L2525 1698M2306 1699L2307 1700L2306 1699z"/>
<path style="fill:#f5b2fe; stroke:none;" d="M1409 1701L1409 1707L1410 1707L1409 1701z"/>
<path style="fill:#b2b2b2; stroke:none;" d="M2307.33 1706.67L2307.67 1707.33L2307.33 1706.67M1409 1707L1409 1710L1410 1710L1409 1707z"/>
<path style="fill:#f5b2fe; stroke:none;" d="M1408 1708L1407 1717L1408 1717L1408 1708z"/>
<path style="fill:#b2b2b2; stroke:none;" d="M1408 1715L1409 1716L1408 1715M1407 1717L1407 1720L1408 1720L1407 1717M2308.33 1719.67L2308.67 1720.33L2308.33 1719.67M1406.33 1726.67L1406.67 1727.33L1406.33 1726.67M2309 1726L2310 1727L2309 1726M2528 1728L2529 1729L2528 1728M1404 1736L1405 1737L1404 1736M2529 1739L2530 1740L2529 1739M1403.33 1742.67L1403.67 1743.33L1403.33 1742.67M2311 1744L2311 1747L2312 1747L2311 1744M2312.33 1752.67L2312.67 1753.33L2312.33 1752.67M2531.33 1752.67L2531.67 1753.33L2531.33 1752.67M2313.33 1757.67L2313.67 1758.33L2313.33 1757.67M2532 1759L2532 1762L2533 1762L2532 1759M2314.33 1767.67L2314.67 1768.33L2314.33 1767.67M2533 1768L2534 1769L2533 1768M2534.33 1772.67L2534.67 1773.33L2534.33 1772.67M2315 1775L2315 1779L2316 1779L2315 1775M2535.33 1778.67L2535.67 1779.33L2535.33 1778.67M2316 1781L2317 1782L2316 1781M2536.33 1787.67L2536.67 1788.33L2536.33 1787.67M2317 1788L2317 1792L2318 1792L2317 1788M2537.33 1792.67L2537.67 1793.33L2537.33 1792.67M2538.33 1796.67L2538.67 1797.33L2538.33 1796.67M2318.33 1798.67L2318.67 1799.33L2318.33 1798.67M2320 1809L2321 1810L2320 1809M2540 1810L2541 1811L2540 1810M2541 1815L2542 1816L2541 1815M2321 1819L2321 1822L2322 1822L2321 1819M2542 1822L2543 1823L2542 1822M2323 1829L2324 1830L2323 1829M2324.33 1836.67L2324.67 1837.33L2324.33 1836.67M2545 1837L2546 1838L2545 1837M2325 1843L2326 1844L2325 1843M2546 1843L2547 1844L2546 1843M2548 1851L2549 1852L2548 1851M2327.33 1853.67L2327.67 1854.33L2327.33 1853.67M2549 1857L2550 1858L2549 1857M2328 1859L2329 1860L2328 1859M2550 1861L2551 1862L2550 1861M2329 1863L2330 1864L2329 1863M2551 1865L2552 1866L2551 1865M2330 1868L2331 1869L2330 1868M2552 1871L2553 1872L2552 1871M2331.33 1875.67L2331.67 1876.33L2331.33 1875.67M2553 1876L2554 1877L2553 1876M2554 1879L2555 1880L2554 1879M2333 1882L2334 1883L2333 1882M2334 1889L2335 1890L2334 1889M2556 1889L2557 1890L2556 1889M2336 1896L2337 1897L2336 1896M2558.33 1896.67L2558.67 1897.33L2558.33 1896.67M2337.33 1902.67L2337.67 1903.33L2337.33 1902.67M2559 1902L2560 1903L2559 1902M2560 1905L2561 1906L2560 1905M2338 1906L2339 1907L2338 1906M2561 1908L2562 1909L2561 1908M2340 1913L2341 1914L2340 1913M2562 1913L2563 1914L2562 1913M2563 1917L2564 1918L2563 1917M2341 1918L2342 1919L2341 1918M2564.33 1919.67L2564.67 1920.33L2564.33 1919.67M2343 1924L2344 1925L2343 1924M2344 1929L2345 1930L2344 1929M2567 1931L2568 1932L2567 1931M2345 1932L2346 1933L2345 1932M2346 1934L2347 1935L2346 1934M2568 1935L2569 1936L2568 1935M2347.33 1939.67L2347.67 1940.33L2347.33 1939.67M2569 1940L2570 1941L2569 1940M2348 1942L2349 1943L2348 1942M2349 1944L2350 1945L2349 1944M2350 1948L2351 1949L2350 1948M2351 1952L2352 1953L2351 1952M2574.33 1955.67L2574.67 1956.33L2574.33 1955.67M2354 1960L2355 1961L2354 1960M2575 1961L2576 1962L2575 1961M2576 1964L2577 1965L2576 1964M2356 1965L2357 1966L2356 1965M2577 1966L2578 1967L2577 1966M2357 1969L2358 1970L2357 1969M2578 1970L2579 1971L2578 1970M2358 1971L2359 1972L2358 1971M2359 1973L2360 1974L2359 1973M2360 1976L2361 1977L2360 1976M2580 1976L2581 1977L2580 1976M2361 1979L2362 1980L2361 1979M2581 1979L2582 1980L2581 1979M2363 1983L2364 1984L2363 1983M2364 1986L2365 1987L2364 1986M2584 1988L2585 1989L2584 1988M2366 1990L2367 1991L2366 1990M2367 1993L2368 1994L2367 1993M2586 1995L2587 1996L2586 1995M2370 1999L2371 2000L2370 1999M2371 2001L2372 2002L2371 2001M2588 2001L2589 2002L2588 2001M2589 2004L2590 2005L2589 2004M2373 2005L2374 2006L2373 2005M2590 2006L2591 2007L2590 2006M2591 2009L2592 2010L2591 2009M2377 2013L2378 2014L2377 2013M2593 2014L2594 2015L2593 2014M2379 2016L2380 2017L2379 2016M2594 2017L2595 2018L2594 2017M2381 2020L2382 2021L2381 2020M2597 2025L2598 2026L2597 2025M2389 2033L2390 2034L2389 2033M2600 2033L2601 2034L2600 2033M2390 2035L2391 2036L2390 2035M2391 2036L2392 2037L2391 2036M2601 2036L2602 2037L2601 2036M2603 2040L2604 2041L2603 2040M2604 2043L2605 2044L2604 2043M2397 2045L2398 2046L2397 2045M2605 2046L2606 2047L2605 2046M2606 2047L2607 2048L2606 2047M2400 2049L2401 2050L2400 2049M2401 2050L2402 2051L2401 2050M2403 2053L2404 2054L2403 2053M2608 2053L2609 2054L2608 2053M2404 2054L2405 2055L2404 2054M2610 2057L2611 2058L2610 2057M2409 2060L2410 2061L2409 2060M2410 2061L2411 2062L2410 2061M2411 2062L2412 2063L2411 2062M2412 2063L2413 2064L2412 2063M2613 2063L2614 2064L2613 2063M2614 2066L2615 2067L2614 2066M2416 2068L2417 2069L2416 2068M2616 2070L2617 2071L2616 2070M2617 2072L2618 2073L2617 2072M2620 2077L2621 2078L2620 2077M2427 2078L2428 2079L2427 2078M2430 2081L2431 2082L2430 2081M2622 2082L2623 2083L2622 2082M2624 2086L2625 2087L2624 2086M2439 2088L2440 2089L2439 2088M2626 2089L2627 2090L2626 2089M2627 2091L2628 2092L2627 2091M2628 2093L2629 2094L2628 2093M2447 2094L2448 2095L2447 2094M2630 2096L2631 2097L2630 2096M2631 2098L2632 2099L2631 2098M2456 2100L2457 2101L2456 2100M2458 2101L2459 2102L2458 2101M2633 2101L2634 2102L2633 2101M2461 2103L2462 2104L2461 2103M2634 2103L2635 2104L2634 2103M2463 2104L2464 2105L2463 2104M2465 2105L2466 2106L2465 2105M2466 2106L2467 2107L2466 2106M2468 2107L2469 2108L2468 2107M2472 2109L2473 2110L2472 2109M2638 2109L2639 2110L2638 2109M2474 2110L2475 2111L2474 2110M2639 2110L2640 2111L2639 2110M2483 2114L2484 2115L2483 2114M2490 2117L2491 2118L2490 2117M2646 2119L2647 2120L2646 2119M2498 2120L2499 2121L2498 2120M2502 2121L2503 2122L2502 2121M2504 2122L2505 2123L2504 2122M2507 2123L2508 2124L2507 2123M2511 2124L2512 2125L2511 2124M2518 2126L2519 2127L2518 2126M2523 2127L2524 2128L2523 2127M2527 2128L2528 2129L2527 2128M2531 2129L2532 2130L2531 2129M2655 2129L2656 2130L2655 2129M2536 2130L2537 2131L2536 2130M2656 2130L2657 2131L2656 2130M2543 2131L2544 2132L2543 2131M2548 2132L2549 2133L2548 2132M2555.67 2133.33L2556.33 2133.67L2555.67 2133.33M2651 2133L2651 2134L2655 2134L2651 2133M2565 2134L2565 2135L2569 2135L2565 2134M2638.67 2134.33L2639.33 2134.67L2638.67 2134.33M2581.67 2135.33L2582.33 2135.67L2581.67 2135.33M2622.67 2135.33L2623.33 2135.67L2622.67 2135.33M1654 2337L1655 2338L1654 2337z"/>
<path style="fill:#484848; stroke:none;" d="M1654 2467L1674 2467C1674 2447.47 1668.76 2418.93 1677.33 2401C1683.03 2389.07 1702.45 2383.92 1711.61 2395.04C1716.9 2401.47 1716 2410.23 1716 2418L1716 2467L1735 2467L1735 2418C1735 2408.74 1736.16 2398.75 1732.52 2390C1722.12 2365 1687.15 2371.85 1673 2388C1673 2373.5 1677.84 2354.17 1673.68 2340.15C1672.3 2335.48 1656.66 2335.14 1654.6 2339.32C1650.38 2347.89 1654 2366.43 1654 2376L1654 2467z"/>
<path style="fill:#b2b2b2; stroke:none;" d="M1673 2337L1674 2338L1673 2337M2070 2337L2071 2338L2070 2337z"/>
<path style="fill:#484848; stroke:none;" d="M2070 2467L2089 2467C2089 2458.73 2086.01 2443.11 2090.6 2436.01C2092.32 2433.37 2097.21 2428.03 2100.83 2429.19C2104.39 2430.34 2107.08 2436.16 2109.15 2439C2114.99 2447.01 2121.31 2459.51 2129.3 2465.4C2134.45 2469.19 2145.84 2467 2152 2467L2124.37 2429L2115.46 2414L2125.96 2402L2149 2376C2143.07 2376 2133.69 2374 2128.29 2376.53C2111.5 2384.38 2102.78 2407.37 2088 2418C2092.75 2392.4 2089 2363.04 2089 2337C2084.87 2337 2073.84 2335.05 2071.03 2338.6C2066.43 2344.4 2070 2364.65 2070 2372L2070 2467z"/>
<path style="fill:#b2b2b2; stroke:none;" d="M2089 2337L2089 2406L2090 2406L2090 2359L2089 2337M2348 2337L2349 2338L2348 2337z"/>
<path style="fill:#484848; stroke:none;" d="M2348 2467L2368 2467C2368 2447.47 2362.76 2418.93 2371.33 2401C2377.03 2389.07 2396.45 2383.92 2405.61 2395.04C2410.9 2401.47 2410 2410.23 2410 2418L2410 2467L2429 2467L2429 2418C2429 2408.74 2430.16 2398.75 2426.52 2390C2416.12 2365 2381.15 2371.85 2367 2388C2367 2373.5 2371.84 2354.17 2367.68 2340.15C2366.3 2335.48 2350.66 2335.14 2348.6 2339.32C2344.38 2347.89 2348 2366.43 2348 2376L2348 2467z"/>
<path style="fill:#b2b2b2; stroke:none;" d="M2367 2337L2368 2338L2367 2337M862 2343L862 2344L870 2344L862 2343z"/>
<path style="fill:#484848; stroke:none;" d="M831 2445C831 2449.56 829.276 2458.51 832.028 2462.35C835.555 2467.28 846.574 2467.58 852 2468.28C871.229 2470.78 896.903 2468.3 905.662 2448C916.07 2423.88 897.492 2406.98 877 2398.6C867.063 2394.54 851.602 2389.06 851.602 2376C851.602 2357.51 874.92 2359.03 887 2362.43C890.393 2363.38 896.057 2366.65 899.581 2365.3C903.453 2363.82 905.144 2354.61 906 2351C881.379 2338.03 832.27 2338.86 832.005 2376C831.97 2380.82 832.64 2385.51 834.475 2390C843.623 2412.38 872.298 2409.53 885.581 2427C892.797 2436.5 886.32 2447.97 876 2451.4C860.824 2456.45 845.395 2448.93 831 2445z"/>
<path style="fill:#b2b2b2; stroke:none;" d="M874 2343L874 2344L882 2344L874 2343M857 2344L857 2345L860 2345L857 2344M885 2344L885 2345L888 2345L885 2344M854.667 2345.33L855.333 2345.67L854.667 2345.33M890.667 2345.33L891.333 2345.67L890.667 2345.33M1364 2345L1365.03 2361.4L1374 2363L1400 2363L1400 2436C1400 2443.85 1397.13 2458.61 1400.6 2465.68C1402.43 2469.4 1415.4 2469.01 1418.68 2467.4C1423.68 2464.94 1421 2446.92 1421 2442L1421 2363L1447 2363L1455.97 2361.4L1457 2345L1456 2345L1456 2362L1420 2362L1420 2467L1401 2467L1401 2362L1365 2362L1364 2345z"/>
<path style="fill:#484848; stroke:none;" d="M1365 2345L1365 2362L1401 2362L1401 2467L1420 2467L1420 2362L1456 2362L1456 2345L1365 2345z"/>
<path style="fill:#b2b2b2; stroke:none;" d="M1807 2345L1808 2346L1807 2345z"/>
<path style="fill:#484848; stroke:none;" d="M1807 2467L1825 2467L1824 2365L1825 2365C1830.79 2390.03 1841.7 2414.8 1850.31 2439C1852.72 2445.78 1854.8 2461.55 1860.7 2465.97C1864.41 2468.75 1873.54 2467 1878 2467L1914 2365L1915 2365L1914 2467L1933 2467L1933 2345L1905.65 2346.03L1895.58 2371L1870 2443C1858.82 2421.79 1852.59 2395.75 1845 2373C1842.88 2366.63 1840.02 2349.91 1834.49 2346.03C1830.95 2343.54 1809.64 2343.18 1807.6 2347.32C1803.6 2355.46 1807 2372.92 1807 2382L1807 2467z"/>
<path style="fill:#b2b2b2; stroke:none;" d="M1835 2345L1836 2346L1835 2345M1904.33 2345.67L1904.67 2346.33L1904.33 2345.67M851.667 2346.33L852.333 2346.67L851.667 2346.33M894.667 2346.33L895.333 2346.67L894.667 2346.33M849.667 2347.33L850.333 2347.67L849.667 2347.33M897.667 2347.33L898.333 2347.67L897.667 2347.33M847 2348L848 2349L847 2348M900.667 2348.33L901.333 2348.67L900.667 2348.33M1836 2348L1837 2349L1836 2348M1903 2348L1904 2349L1903 2348M846 2349L847 2350L846 2349M903 2349L904 2350L903 2349M844 2350L845 2351L844 2350M905 2350L906 2351L905 2350M843 2351L844 2352L843 2351M906 2351L907 2352L906 2351M1837 2351L1838 2352L1837 2351M1902 2351L1903 2352L1902 2351M905.333 2353.67L905.667 2354.33L905.333 2353.67z"/>
<path style="fill:#f5b2fe; stroke:none;" d="M1838 2353L1839 2354L1838 2353M1901 2353L1902 2354L1901 2353z"/>
<path style="fill:#b2b2b2; stroke:none;" d="M1274 2354L1275 2355L1274 2354z"/>
<path style="fill:#484848; stroke:none;" d="M1267 2390L1267 2433C1267 2441.31 1266.4 2450.63 1270.99 2458C1277.27 2468.06 1290.09 2470.05 1301 2468.71C1304.23 2468.32 1309.82 2468.14 1311.97 2465.3C1314.27 2462.26 1313 2455.62 1313 2452C1306.35 2452.86 1299.32 2455.61 1293.02 2451.91C1286.48 2448.08 1286.01 2440.8 1286 2434L1286 2390L1312 2390L1312 2376C1306.36 2376 1291.8 2378.6 1287.6 2374.4C1283.85 2370.64 1286 2358.97 1286 2354C1269.49 2354 1275.85 2363.56 1267.3 2373.61C1264.56 2376.83 1243.25 2389.65 1261 2390C1263 2390.03 1265 2390 1267 2390z"/>
<path style="fill:#b2b2b2; stroke:none;" d="M1286 2354L1286 2375L1287 2375L1286 2354M1838 2354L1839 2355L1838 2354M1901 2354L1902 2355L1901 2354M904 2356L905 2357L904 2356M1273.33 2356.67L1273.67 2357.33L1273.33 2356.67M1839.33 2356.67L1839.67 2357.33L1839.33 2356.67M1900.33 2356.67L1900.67 2357.33L1900.33 2356.67M837 2357L838 2358L837 2357M836 2358L837 2359L836 2358M903.333 2358.67L903.667 2359.33L903.333 2358.67M1272.33 2359.67L1272.67 2360.33L1272.33 2359.67M1840.33 2359.67L1840.67 2360.33L1840.33 2359.67M1899.33 2359.67L1899.67 2360.33L1899.33 2359.67M835 2360L836 2361L835 2360M865 2360L865 2361L878 2361L865 2360M861 2361L861 2362L864 2362L861 2361M880 2361L880 2362L884 2362L880 2361M902 2361L903 2362L902 2361M834 2362L835 2363L834 2362M859.667 2362.33L860.333 2362.67L859.667 2362.33M885 2362L885 2363L888 2363L885 2362M1271.33 2362.67L1271.67 2363.33L1271.33 2362.67M1841.33 2362.67L1841.67 2363.33L1841.33 2362.67M1898 2362L1899 2363L1898 2362M858 2363L859 2364L858 2363M889.667 2363.33L890.333 2363.67L889.667 2363.33M833.333 2364.67L833.667 2365.33L833.333 2364.67M856 2364L857 2365L856 2364M892.667 2364.33L893.333 2364.67L892.667 2364.33M901 2364L902 2365L901 2364M855 2365L856 2366L855 2365M895.667 2365.33L896.333 2365.67L895.667 2365.33M1270.33 2365.67L1270.67 2366.33L1270.33 2365.67M1824 2365L1825 2366L1824 2365M1842 2365L1843 2366L1842 2365M1897 2365L1898 2366L1897 2365M1914 2365L1915 2366L1914 2365M854 2366L855 2367L854 2366z"/>
<path style="fill:#f5b2fe; stroke:none;" d="M897 2366L898 2367L897 2366z"/>
<path style="fill:#b2b2b2; stroke:none;" d="M898 2366L898 2367L901 2367L898 2366z"/>
<path style="fill:#f5b2fe; stroke:none;" d="M1914 2366L1915 2367L1914 2366z"/>
<path style="fill:#b2b2b2; stroke:none;" d="M1825.33 2367.67L1825.67 2368.33L1825.33 2367.67M1896.33 2367.67L1896.67 2368.33L1896.33 2367.67M1913.33 2367.67L1913.67 2368.33L1913.33 2367.67z"/>
<path style="fill:#ffffff; stroke:none;" d="M1914.33 2367.67L1914.67 2368.33L1914.33 2367.67z"/>
<path style="fill:#b2b2b2; stroke:none;" d="M832.333 2368.67L832.667 2369.33L832.333 2368.67M853 2368L854 2369L853 2368M1269.33 2368.67L1269.67 2369.33L1269.33 2368.67M1843 2368L1844 2369L1843 2368z"/>
<path style="fill:#f5b2fe; stroke:none;" d="M1914 2369L1915 2370L1914 2369z"/>
<path style="fill:#b2b2b2; stroke:none;" d="M852 2370L853 2371L852 2370M1826.33 2370.67L1826.67 2371.33L1826.33 2370.67M1895.33 2370.67L1895.67 2371.33L1895.33 2370.67M1912 2370L1913 2371L1912 2370M1914 2370L1914 2383L1915 2383L1914 2370M1268.33 2371.67L1268.67 2372.33L1268.33 2371.67M1673 2371L1673 2382L1674 2382L1673 2371z"/>
<path style="fill:#f5b2fe; stroke:none;" d="M1824 2371L1825 2372L1824 2371z"/>
<path style="fill:#b2b2b2; stroke:none;" d="M1844 2371L1845 2372L1844 2371z"/>
<path style="fill:#f5b2fe; stroke:none;" d="M1912 2371L1913 2372L1912 2371z"/>
<path style="fill:#b2b2b2; stroke:none;" d="M2367 2371L2367 2382L2368 2382L2367 2371M1824 2372L1824 2383L1825 2383L1824 2372z"/>
<path style="fill:#f5b2fe; stroke:none;" d="M968 2373L969 2374L968 2373z"/>
<path style="fill:#b2b2b2; stroke:none;" d="M969 2373L969 2374L983 2374L969 2373M1026 2373L1026 2374L1041 2374L1026 2373z"/>
<path style="fill:#f5b2fe; stroke:none;" d="M1041 2373L1042 2374L1041 2373z"/>
<path style="fill:#b2b2b2; stroke:none;" d="M1119 2373L1119 2374L1137 2374L1119 2373z"/>
<path style="fill:#f5b2fe; stroke:none;" d="M1137 2373L1138 2374L1137 2373z"/>
<path style="fill:#b2b2b2; stroke:none;" d="M1232 2373L1232 2374L1248 2375L1232 2373M1501 2373L1501 2374L1517 2374L1501 2373M1600 2373L1600 2374L1619 2374L1600 2373M1695 2373L1695 2374L1710 2374L1695 2373z"/>
<path style="fill:#f5b2fe; stroke:none;" d="M1710 2373L1711 2374L1710 2373z"/>
<path style="fill:#b2b2b2; stroke:none;" d="M1827.33 2373.67L1827.67 2374.33L1827.33 2373.67z"/>
<path style="fill:#f5b2fe; stroke:none;" d="M1845 2373L1846 2374L1845 2373z"/>
<path style="fill:#b2b2b2; stroke:none;" d="M1894 2373L1895 2374L1894 2373M1911 2373L1912 2374L1911 2373M2195 2373L2195 2374L2211 2374L2195 2373z"/>
<path style="fill:#f5b2fe; stroke:none;" d="M2211 2373L2212 2374L2211 2373z"/>
<path style="fill:#b2b2b2; stroke:none;" d="M2285 2373L2285 2374L2304 2374L2285 2373z"/>
<path style="fill:#f5b2fe; stroke:none;" d="M2304 2373L2305 2374L2304 2373z"/>
<path style="fill:#b2b2b2; stroke:none;" d="M2389 2373L2389 2374L2404 2374L2389 2373z"/>
<path style="fill:#f5b2fe; stroke:none;" d="M2404 2373L2405 2374L2404 2373z"/>
<path style="fill:#b2b2b2; stroke:none;" d="M851 2374L851 2378L852 2378L851 2374M964 2374L964 2375L967 2375L964 2374z"/>
<path style="fill:#484848; stroke:none;" d="M949 2387L947 2387C943.991 2375.37 940.394 2376 929 2376L929 2467L948 2467C948 2447 943.762 2420.87 951.475 2402C956.042 2390.83 970.935 2384.05 980.895 2393.22C987.651 2399.45 987 2408.62 987 2417L987 2467L1006 2467C1006 2447.11 1001.25 2419.57 1009.53 2401C1014.83 2389.1 1031.69 2384.42 1040.72 2395.04C1046.12 2401.4 1045 2410.26 1045 2418L1045 2467L1064 2467L1064 2419C1064 2409.82 1065.18 2399.83 1062.25 2391C1056.68 2374.17 1035.21 2370.27 1020 2375.7C1012.87 2378.25 1008.78 2383.59 1003 2388C994.262 2369.69 958.067 2367.61 949 2387z"/>
<path style="fill:#b2b2b2; stroke:none;" d="M985 2374L985 2375L988 2375L985 2374M1022.67 2374.33L1023.33 2374.67L1022.67 2374.33M1043 2374L1043 2375L1046 2375L1043 2374M1113 2374L1113 2375L1117 2375L1113 2374z"/>
<path style="fill:#484848; stroke:none;" d="M1101 2395C1113.39 2390.81 1137.15 2379.73 1143.2 2399C1144.48 2403.11 1144 2407.75 1144 2412C1127.54 2412 1107.68 2410.38 1094.04 2421.53C1080.27 2432.79 1083.92 2459.13 1100 2466.12C1117.63 2473.78 1133.44 2466.56 1146 2454C1147.75 2465.84 1151.96 2467 1163 2467L1163 2411C1163 2400.83 1163.61 2389.99 1155.81 2382.19C1145.01 2371.37 1124.76 2372.4 1111 2375.65C1107.28 2376.53 1099.12 2377.72 1097.13 2381.42C1095.17 2385.07 1099.61 2391.62 1101 2395z"/>
<path style="fill:#b2b2b2; stroke:none;" d="M1140.67 2374.33L1141.33 2374.67L1140.67 2374.33z"/>
<path style="fill:#f5b2fe; stroke:none;" d="M1142 2374L1143 2375L1142 2374M1228 2374L1229 2375L1228 2374z"/>
<path style="fill:#b2b2b2; stroke:none;" d="M1229.67 2374.33L1230.33 2374.67L1229.67 2374.33z"/>
<path style="fill:#484848; stroke:none;" d="M1211 2391L1209 2391C1206.41 2377.25 1205.1 2376 1191 2376L1191 2467L1210 2467C1210 2443.75 1201.24 2397.18 1233 2391.46C1237.43 2390.67 1241.61 2391.45 1246 2392L1248 2375C1234.13 2370.9 1216.47 2376.87 1211 2391z"/>
<path style="fill:#f5b2fe; stroke:none;" d="M1266 2374L1267 2375L1266 2374z"/>
<path style="fill:#b2b2b2; stroke:none;" d="M1267 2374L1268 2375L1267 2374M1496 2374L1496 2375L1499 2375L1496 2374z"/>
<path style="fill:#484848; stroke:none;" d="M1544 2448C1525.15 2452.36 1497.79 2462.43 1488.7 2437C1487.27 2433.01 1487.01 2429.19 1487 2425L1548 2425C1548 2410.08 1548.9 2394.42 1536.91 2383.3C1510.08 2358.43 1468.53 2381.21 1467.04 2415C1466.19 2434.22 1470.08 2454.54 1489 2464.01C1501.17 2470.1 1515.9 2469.92 1529 2467.71C1533.03 2467.04 1540.42 2465.92 1542.97 2462.35C1545.36 2459.01 1544 2451.93 1544 2448z"/>
<path style="fill:#b2b2b2; stroke:none;" d="M1519 2374L1519 2375L1522 2375L1519 2374M1595 2374L1595 2375L1598 2375L1595 2374z"/>
<path style="fill:#484848; stroke:none;" d="M1633 2447C1621.71 2451.63 1606.15 2457.56 1595.09 2449.06C1579.48 2437.07 1580.27 2400.2 1599 2391.41C1609.31 2386.58 1619.81 2391.64 1630 2394L1635 2379C1619.15 2370.65 1592.83 2370.93 1579 2383.19C1560.38 2399.69 1559 2439.73 1576.3 2457.83C1586.65 2468.65 1603.92 2470.55 1618 2468.25C1622.12 2467.57 1629.31 2467.07 1631.97 2463.35C1634.61 2459.67 1633 2451.35 1633 2447z"/>
<path style="fill:#b2b2b2; stroke:none;" d="M1621 2374L1621 2375L1624 2375L1621 2374z"/>
<path style="fill:#f5b2fe; stroke:none;" d="M1690 2374L1691 2375L1690 2374z"/>
<path style="fill:#b2b2b2; stroke:none;" d="M1691.67 2374.33L1692.33 2374.67L1691.67 2374.33M1712 2374L1712 2375L1715 2375L1712 2374M1845 2374L1846 2375L1845 2374M2190 2374L2190 2375L2193 2375L2190 2374z"/>
<path style="fill:#484848; stroke:none;" d="M2238 2448C2219.21 2452.35 2191.78 2462.39 2182.7 2437C2181.27 2433.01 2181.01 2429.19 2181 2425L2242 2425C2242 2410.08 2242.9 2394.42 2230.91 2383.3C2203.33 2357.73 2162.52 2382.1 2161.04 2416C2160.2 2435.18 2164.75 2455.73 2184 2464.48C2196.1 2469.98 2210.14 2469.88 2223 2467.71C2227.03 2467.04 2234.42 2465.92 2236.97 2462.35C2239.36 2459.01 2238 2451.93 2238 2448z"/>
<path style="fill:#b2b2b2; stroke:none;" d="M2213 2374L2213 2375L2216 2375L2213 2374M2280 2374L2280 2375L2283 2375L2280 2374z"/>
<path style="fill:#484848; stroke:none;" d="M2260 2448C2260 2452.05 2258.49 2459.91 2261.03 2463.3C2264.15 2467.46 2273.31 2467.75 2278 2468.42C2296.21 2471.03 2322.51 2467.85 2326.24 2446C2329.83 2424.98 2310.92 2417.61 2295 2410.99C2289.29 2408.61 2275.94 2403.45 2279.41 2395.02C2285.36 2380.6 2309.24 2391.69 2319 2394L2325 2380C2311 2373.45 2291.9 2371.06 2277 2376.04C2262.99 2380.72 2255.42 2394.97 2261.53 2409C2269.16 2426.5 2293.36 2423.92 2304.72 2437.09C2311.04 2444.42 2304.84 2451.81 2297 2453.76C2284.09 2456.98 2272.29 2450.84 2260 2448z"/>
<path style="fill:#b2b2b2; stroke:none;" d="M2307 2374L2307 2375L2310 2375L2307 2374z"/>
<path style="fill:#f5b2fe; stroke:none;" d="M2310 2374L2311 2375L2310 2374M2384 2374L2385 2375L2384 2374z"/>
<path style="fill:#b2b2b2; stroke:none;" d="M2385.67 2374.33L2386.33 2374.67L2385.67 2374.33M2406 2374L2406 2375L2409 2375L2406 2374M929 2375L929 2376L945 2377L929 2375z"/>
<path style="fill:#f5b2fe; stroke:none;" d="M961 2375L962 2376L961 2375z"/>
<path style="fill:#b2b2b2; stroke:none;" d="M962 2375L963 2376L962 2375M989.667 2375.33L990.333 2375.67L989.667 2375.33M1019.67 2375.33L1020.33 2375.67L1019.67 2375.33M1047.67 2375.33L1048.33 2375.67L1047.67 2375.33M1109 2375L1109 2376L1112 2376L1109 2375M1144.67 2375.33L1145.33 2375.67L1144.67 2375.33M1191 2375L1191 2376L1207 2377L1191 2375M1226.67 2375.33L1227.33 2375.67L1226.67 2375.33M1265 2375L1266 2376L1265 2375M1287 2375L1287 2376L1312 2376L1312 2390L1313 2390L1313 2375L1287 2375M1493.67 2375.33L1494.33 2375.67L1493.67 2375.33M1523.67 2375.33L1524.33 2375.67L1523.67 2375.33z"/>
<path style="fill:#f5b2fe; stroke:none;" d="M1591 2375L1592 2376L1591 2375z"/>
<path style="fill:#b2b2b2; stroke:none;" d="M1592.67 2375.33L1593.33 2375.67L1592.67 2375.33M1626.67 2375.33L1627.33 2375.67L1626.67 2375.33M1688 2375L1689 2376L1688 2375M1716.67 2375.33L1717.33 2375.67L1716.67 2375.33M1961 2375L1961 2443L1962 2443L1962 2393C1962 2387.79 1960.14 2379.15 1965 2376L1961 2375z"/>
<path style="fill:#484848; stroke:none;" d="M1962 2376L1962 2424C1962 2433.21 1960.82 2443.21 1964.09 2452C1973.96 2478.5 2009.97 2469.99 2025 2455C2027.4 2467.36 2031.21 2467 2043 2467L2043 2376C2039.26 2376 2026.54 2373.88 2024.6 2377.47C2022.33 2381.68 2024 2390.3 2024 2395C2024 2409.51 2026.25 2427.45 2020.1 2441C2014.21 2453.95 1992.74 2459.9 1984.22 2445.98C1978.13 2436.02 1981 2420.21 1981 2409L1981 2376L1962 2376z"/>
<path style="fill:#b2b2b2; stroke:none;" d="M1966 2375L1966 2376L1977 2376L1966 2375M1978 2375L1978 2376L1981 2376L1978 2375M2023 2375L2023 2424L2024 2424L2024 2391L2026 2376L2023 2375M2027 2375L2027 2376L2043 2376L2027 2375M2128 2375L2128 2376L2132 2376L2128 2375M2133 2375L2133 2376L2151 2376L2133 2375M2187.67 2375.33L2188.33 2375.67L2187.67 2375.33M2217.67 2375.33L2218.33 2375.67L2217.67 2375.33M2277.67 2375.33L2278.33 2375.67L2277.67 2375.33M2312.67 2375.33L2313.33 2375.67L2312.67 2375.33z"/>
<path style="fill:#f5b2fe; stroke:none;" d="M2314 2375L2315 2376L2314 2375z"/>
<path style="fill:#b2b2b2; stroke:none;" d="M2382 2375L2383 2376L2382 2375M2410.67 2375.33L2411.33 2375.67L2410.67 2375.33M959.667 2376.33L960.333 2376.67L959.667 2376.33M991.667 2376.33L992.333 2376.67L991.667 2376.33M1017 2376L1018 2377L1017 2376M1049.67 2376.33L1050.33 2376.67L1049.67 2376.33z"/>
<path style="fill:#f5b2fe; stroke:none;" d="M1105 2376L1106 2377L1105 2376z"/>
<path style="fill:#b2b2b2; stroke:none;" d="M1106.67 2376.33L1107.33 2376.67L1106.67 2376.33M1147 2376L1148 2377L1147 2376M1224 2376L1225 2377L1224 2376M1247 2376L1247 2380L1248 2380L1247 2376M1263 2376L1264 2377L1263 2376z"/>
<path style="fill:#f5b2fe; stroke:none;" d="M1490 2376L1491 2377L1490 2376z"/>
<path style="fill:#b2b2b2; stroke:none;" d="M1491 2376L1492 2377L1491 2376M1526 2376L1527 2377L1526 2376M1589.67 2376.33L1590.33 2376.67L1589.67 2376.33M1629.67 2376.33L1630.33 2376.67L1629.67 2376.33M1685.67 2376.33L1686.33 2376.67L1685.67 2376.33M1719 2376L1720 2377L1719 2376M1828.33 2376.67L1828.67 2377.33L1828.33 2376.67M1846.33 2376.67L1846.67 2377.33L1846.33 2376.67M1893 2376L1894 2377L1893 2376M1910 2376L1911 2377L1910 2376z"/>
<path style="fill:#f5b2fe; stroke:none;" d="M2184 2376L2185 2377L2184 2376z"/>
<path style="fill:#b2b2b2; stroke:none;" d="M2185 2376L2186 2377L2185 2376M2220 2376L2221 2377L2220 2376z"/>
<path style="fill:#f5b2fe; stroke:none;" d="M2221 2376L2222 2377L2221 2376z"/>
<path style="fill:#b2b2b2; stroke:none;" d="M2274.67 2376.33L2275.33 2376.67L2274.67 2376.33M2316.67 2376.33L2317.33 2376.67L2316.67 2376.33M2379.67 2376.33L2380.33 2376.67L2379.67 2376.33M2413 2376L2414 2377L2413 2376M957.667 2377.33L958.333 2377.67L957.667 2377.33M993 2377L994 2378L993 2377z"/>
<path style="fill:#f5b2fe; stroke:none;" d="M994 2377L995 2378L994 2377z"/>
<path style="fill:#b2b2b2; stroke:none;" d="M1015 2377L1016 2378L1015 2377M1051.67 2377.33L1052.33 2377.67L1051.67 2377.33M1103.67 2377.33L1104.33 2377.67L1103.67 2377.33M1149 2377L1150 2378L1149 2377M1222.67 2377.33L1223.33 2377.67L1222.67 2377.33M1261 2377L1262 2378L1261 2377M1488.67 2377.33L1489.33 2377.67L1488.67 2377.33M1528 2377L1529 2378L1528 2377z"/>
<path style="fill:#f5b2fe; stroke:none;" d="M1529 2377L1530 2378L1529 2377z"/>
<path style="fill:#b2b2b2; stroke:none;" d="M1587 2377L1588 2378L1587 2377M1632.67 2377.33L1633.33 2377.67L1632.67 2377.33M1684 2377L1685 2378L1684 2377M1721 2377L1722 2378L1721 2377M2126 2377L2127 2378L2126 2377M2148 2377L2149 2378L2148 2377z"/>
<path style="fill:#f5b2fe; stroke:none;" d="M2182 2377L2183 2378L2182 2377z"/>
<path style="fill:#b2b2b2; stroke:none;" d="M2183 2377L2184 2378L2183 2377M2222.67 2377.33L2223.33 2377.67L2222.67 2377.33M2272 2377L2273 2378L2272 2377M2319.67 2377.33L2320.33 2377.67L2319.67 2377.33M2378 2377L2379 2378L2378 2377M2415 2377L2416 2378L2415 2377M956 2378L957 2379L956 2378M995 2378L996 2379L995 2378M1013 2378L1014 2379L1013 2378M1053 2378L1054 2379L1053 2378M1100.67 2378.33L1101.33 2378.67L1100.67 2378.33M1151 2378L1152 2379L1151 2378M1221 2378L1222 2379L1221 2378M1259 2378L1260 2379L1259 2378M1487 2378L1488 2379L1487 2378M1530 2378L1531 2379L1530 2378M1585 2378L1586 2379L1585 2378M1634 2378L1635 2379L1634 2378M1682 2378L1683 2379L1682 2378M1723 2378L1724 2379L1723 2378z"/>
<path style="fill:#f5b2fe; stroke:none;" d="M1892 2378L1893 2379L1892 2378z"/>
<path style="fill:#b2b2b2; stroke:none;" d="M1909.33 2378.67L1909.67 2379.33L1909.33 2378.67M2125 2378L2126 2379L2125 2378M2147 2378L2148 2379L2147 2378M2181 2378L2182 2379L2181 2378M2224 2378L2225 2379L2224 2378M2270.67 2378.33L2271.33 2378.67L2270.67 2378.33M2321.67 2378.33L2322.33 2378.67L2321.67 2378.33M2376 2378L2377 2379L2376 2378M2417 2378L2418 2379L2417 2378M945.333 2379.67L945.667 2380.33L945.333 2379.67M954 2379L955 2380L954 2379M996 2379L997 2380L996 2379M1012 2379L1013 2380L1012 2379M1054 2379L1055 2380L1054 2379M1098 2379L1099 2380L1098 2379M1152 2379L1153 2380L1152 2379M1220 2379L1221 2380L1220 2379M1257 2379L1258 2380L1257 2379M1485 2379L1486 2380L1485 2379M1532 2379L1533 2380L1532 2379M1583 2379L1584 2380L1583 2379M1681 2379L1682 2380L1681 2379M1724 2379L1725 2380L1724 2379M1829 2379L1830 2380L1829 2379M1847.33 2379.67L1847.67 2380.33L1847.33 2379.67M1892 2379L1893 2380L1892 2379M2124 2379L2125 2380L2124 2379M2179 2379L2180 2380L2179 2379M2226 2379L2227 2380L2226 2379M2269 2379L2270 2380L2269 2379M2324 2379L2325 2380L2324 2379M2375 2379L2376 2380L2375 2379M2418 2379L2419 2380L2418 2379M953 2380L954 2381L953 2380M1011 2380L1012 2381L1011 2380M1096 2380L1097 2381L1096 2380M1154 2380L1155 2381L1154 2380M1207 2380L1207 2383L1208 2383L1207 2380M1218 2380L1219 2381L1218 2380z"/>
<path style="fill:#f5b2fe; stroke:none;" d="M1247 2380L1248 2381L1247 2380z"/>
<path style="fill:#b2b2b2; stroke:none;" d="M1255.67 2380.33L1256.33 2380.67L1255.67 2380.33M1484 2380L1485 2381L1484 2380M1533 2380L1534 2381L1533 2380M1582 2380L1583 2381L1582 2380M1679 2380L1680 2381L1679 2380M1725 2380L1726 2381L1725 2380z"/>
<path style="fill:#f5b2fe; stroke:none;" d="M1829 2380L1830 2381L1829 2380z"/>
<path style="fill:#b2b2b2; stroke:none;" d="M2123 2380L2124 2381L2123 2380M2178 2380L2179 2381L2178 2380M2227 2380L2228 2381L2227 2380M2267 2380L2268 2381L2267 2380M2373 2380L2374 2381L2373 2380M2419 2380L2420 2381L2419 2380M852 2381L853 2382L852 2381M952 2381L953 2382L952 2381M1009 2381L1010 2382L1009 2381M1095.33 2381.67L1095.67 2382.33L1095.33 2381.67M1155 2381L1156 2382L1155 2381M1217 2381L1218 2382L1217 2381M1254 2381L1255 2382L1254 2381M1482 2381L1483 2382L1482 2381M1534 2381L1535 2382L1534 2381M1580 2381L1581 2382L1580 2381M1634 2381L1635 2382L1634 2381M1678 2381L1679 2382L1678 2381z"/>
<path style="fill:#f5b2fe; stroke:none;" d="M1727 2381L1728 2382L1727 2381z"/>
<path style="fill:#b2b2b2; stroke:none;" d="M1891.33 2381.67L1891.67 2382.33L1891.33 2381.67M1908.33 2381.67L1908.67 2382.33L1908.33 2381.67M2122 2381L2123 2382L2122 2381z"/>
<path style="fill:#f5b2fe; stroke:none;" d="M2145 2381L2146 2382L2145 2381z"/>
<path style="fill:#b2b2b2; stroke:none;" d="M2176 2381L2177 2382L2176 2381M2228 2381L2229 2382L2228 2381z"/>
<path style="fill:#f5b2fe; stroke:none;" d="M2229 2381L2230 2382L2229 2381z"/>
<path style="fill:#b2b2b2; stroke:none;" d="M2266 2381L2267 2382L2266 2381M2324.33 2381.67L2324.67 2382.33L2324.33 2381.67M2372 2381L2373 2382L2372 2381z"/>
<path style="fill:#f5b2fe; stroke:none;" d="M2421 2381L2422 2382L2421 2381z"/>
<path style="fill:#b2b2b2; stroke:none;" d="M951 2382L952 2383L951 2382M1008 2382L1009 2383L1008 2382M1156 2382L1157 2383L1156 2382M1216 2382L1217 2383L1216 2382M1481 2382L1482 2383L1481 2382z"/>
<path style="fill:#f5b2fe; stroke:none;" d="M1536 2382L1537 2383L1536 2382z"/>
<path style="fill:#b2b2b2; stroke:none;" d="M1579 2382L1580 2383L1579 2382z"/>
<path style="fill:#f5b2fe; stroke:none;" d="M1673 2382L1674 2383L1673 2382z"/>
<path style="fill:#b2b2b2; stroke:none;" d="M1677 2382L1678 2383L1677 2382M1830 2382L1831 2383L1830 2382M1848.33 2382.67L1848.67 2383.33L1848.33 2382.67M2121 2382L2122 2383L2121 2382M2144 2382L2145 2383L2144 2382M2175 2382L2176 2383L2175 2382M2230 2382L2231 2383L2230 2382M2265 2382L2266 2383L2265 2382z"/>
<path style="fill:#f5b2fe; stroke:none;" d="M2367 2382L2368 2383L2367 2382z"/>
<path style="fill:#b2b2b2; stroke:none;" d="M2371 2382L2372 2383L2371 2382M832.333 2383.67L832.667 2384.33L832.333 2383.67M853 2383L854 2384L853 2383z"/>
<path style="fill:#f5b2fe; stroke:none;" d="M946 2383L947 2384L946 2383z"/>
<path style="fill:#b2b2b2; stroke:none;" d="M950 2383L951 2384L950 2383M1000 2383L1001 2384L1000 2383M1058 2383L1059 2384L1058 2383M1157 2383L1158 2384L1157 2383M1215 2383L1216 2384L1215 2383M1480 2383L1481 2384L1480 2383M1537 2383L1538 2384L1537 2383M1578 2383L1579 2384L1578 2383M1633.33 2383.67L1633.67 2384.33L1633.33 2383.67M1676 2383L1677 2384L1676 2383M1728 2383L1729 2384L1728 2383M2120 2383L2121 2384L2120 2383M2143 2383L2144 2384L2143 2383M2174 2383L2175 2384L2174 2383M2231 2383L2232 2384L2231 2383M2264 2383L2265 2384L2264 2383M2370 2383L2371 2384L2370 2383M2422 2383L2423 2384L2422 2383M946.333 2384.67L946.667 2385.33L946.333 2384.67z"/>
<path style="fill:#f5b2fe; stroke:none;" d="M949 2384L950 2385L949 2384z"/>
<path style="fill:#b2b2b2; stroke:none;" d="M1001 2384L1002 2385L1001 2384M1059 2384L1060 2385L1059 2384M1096 2384L1097 2385L1096 2384M1214 2384L1215 2385L1214 2384M1479 2384L1480 2385L1479 2384M1538 2384L1539 2385L1538 2384M1577 2384L1578 2385L1577 2384M1729 2384L1730 2385L1729 2384M1890.33 2384.67L1890.67 2385.33L1890.33 2384.67M1907 2384L1908 2385L1907 2384M2119 2384L2120 2385L2119 2384M2142 2384L2143 2385L2142 2384M2173 2384L2174 2385L2173 2384M2232 2384L2233 2385L2232 2384M2263 2384L2264 2385L2263 2384M2323 2384L2324 2385L2323 2384M2423 2384L2424 2385L2423 2384M854 2385L855 2386L854 2385M1006 2385L1007 2386L1006 2385M1158 2385L1159 2386L1158 2385M1246 2385L1246 2390L1247 2390L1246 2385M1478 2385L1479 2386L1478 2385M1576 2385L1577 2386L1576 2385M1675 2385L1676 2386L1675 2385M1730 2385L1731 2386L1730 2385M1831 2385L1832 2386L1831 2385M1849.33 2385.67L1849.67 2386.33L1849.33 2385.67M2118 2385L2119 2386L2118 2385M2141 2385L2142 2386L2141 2385M2172 2385L2173 2386L2172 2385z"/>
<path style="fill:#f5b2fe; stroke:none;" d="M2233 2385L2234 2386L2233 2385z"/>
<path style="fill:#b2b2b2; stroke:none;" d="M2369 2385L2370 2386L2369 2385M2424 2385L2425 2386L2424 2385M855 2386L856 2387L855 2386M948 2386L949 2387L948 2386M1002 2386L1003 2387L1002 2386M1005 2386L1006 2387L1005 2386M1060 2386L1061 2387L1060 2386M1097.33 2386.67L1097.67 2387.33L1097.33 2386.67M1159 2386L1160 2387L1159 2386M1208 2386L1208 2389L1209 2389L1208 2386M1477 2386L1478 2387L1477 2386M1575 2386L1576 2387L1575 2386M1632 2386L1633 2387L1632 2386M1674 2386L1675 2387L1674 2386M2117 2386L2118 2387L2117 2386M2140 2386L2141 2387L2140 2386M2171 2386L2172 2387L2171 2386M2262 2386L2263 2387L2262 2386M2322 2386L2323 2387L2322 2386M2368 2386L2369 2387L2368 2386M833 2387L834 2388L833 2387M856 2387L857 2388L856 2387M1003.67 2387.33L1004.33 2387.67L1003.67 2387.33M1212 2387L1213 2388L1212 2387M1540 2387L1541 2388L1540 2387M1574 2387L1575 2388L1574 2387z"/>
<path style="fill:#f5b2fe; stroke:none;" d="M1632 2387L1633 2388L1632 2387z"/>
<path style="fill:#b2b2b2; stroke:none;" d="M1673 2387L1674 2388L1673 2387M1731 2387L1732 2388L1731 2387M1889 2387L1890 2388L1889 2387M1906 2387L1907 2388L1906 2387M2116 2387L2117 2388L2116 2387M2139 2387L2140 2388L2139 2387M2234 2387L2235 2388L2234 2387M2261.33 2387.67L2261.67 2388.33L2261.33 2387.67M2367 2387L2368 2388L2367 2387M2425 2387L2426 2388L2425 2387M857 2388L858 2389L857 2388M1061 2388L1062 2389L1061 2388M1120 2388L1120 2389L1133 2389L1120 2388M1160 2388L1161 2389L1160 2388M1211 2388L1212 2389L1211 2388M1503 2388L1503 2389L1515 2389L1503 2388M1541 2388L1542 2389L1541 2388M1573 2388L1574 2389L1573 2388M1832 2388L1833 2389L1832 2388M1850 2388L1851 2389L1850 2388M2115 2388L2116 2389L2115 2388M2138 2388L2139 2389L2138 2388M2170 2388L2171 2389L2170 2388M2197 2388L2197 2389L2209 2389L2197 2388M2235 2388L2236 2389L2235 2388M2289 2388L2289 2389L2299 2389L2289 2388M2321.33 2388.67L2321.67 2389.33L2321.33 2388.67M858 2389L859 2390L858 2389M965 2389L965 2390L975 2390L965 2389M1023 2389L1023 2390L1033 2390L1023 2389M1098 2389L1099 2390L1098 2389M1116 2389L1116 2390L1119 2390L1116 2389z"/>
<path style="fill:#f5b2fe; stroke:none;" d="M1119 2389L1120 2390L1119 2389M1133 2389L1134 2390L1133 2389z"/>
<path style="fill:#b2b2b2; stroke:none;" d="M1134.67 2389.33L1135.33 2389.67L1134.67 2389.33M1254 2389L1255 2390L1254 2389M1475 2389L1476 2390L1475 2389M1492 2396L1502 2390C1497.6 2389.29 1494.46 2392.69 1492 2396z"/>
<path style="fill:#f5b2fe; stroke:none;" d="M1502 2389L1503 2390L1502 2389z"/>
<path style="fill:#ffffff; stroke:none;" d="M1487 2411L1529 2411C1528.65 2394.04 1511.58 2381.22 1496.04 2392.65C1489.98 2397.11 1488.77 2404.19 1487 2411z"/>
<path style="fill:#f5b2fe; stroke:none;" d="M1515 2389L1516 2390L1515 2389z"/>
<path style="fill:#b2b2b2; stroke:none;" d="M1516.67 2389.33L1517.33 2389.67L1516.67 2389.33M1605 2389L1605 2390L1612 2390L1605 2389M1631 2389L1632 2390L1631 2389M1692 2389L1692 2390L1703 2390L1692 2389M1732 2389L1733 2390L1732 2389M1905.33 2389.67L1905.67 2390.33L1905.33 2389.67M2114 2389L2115 2390L2114 2389M2137 2389L2138 2390L2137 2389M2169 2389L2170 2390L2169 2389M2186 2396L2196 2390C2191.6 2389.29 2188.46 2392.69 2186 2396z"/>
<path style="fill:#f5b2fe; stroke:none;" d="M2196 2389L2197 2390L2196 2389z"/>
<path style="fill:#ffffff; stroke:none;" d="M2182 2411L2223 2411C2222.4 2381.93 2182.61 2382.38 2182 2411z"/>
<path style="fill:#f5b2fe; stroke:none;" d="M2209 2389L2210 2390L2209 2389z"/>
<path style="fill:#b2b2b2; stroke:none;" d="M2210.67 2389.33L2211.33 2389.67L2210.67 2389.33z"/>
<path style="fill:#f5b2fe; stroke:none;" d="M2260 2389L2261 2390L2260 2389z"/>
<path style="fill:#b2b2b2; stroke:none;" d="M2284 2389L2284 2390L2287 2390L2284 2389z"/>
<path style="fill:#f5b2fe; stroke:none;" d="M2287 2389L2288 2390L2287 2389M2300 2389L2301 2390L2300 2389z"/>
<path style="fill:#b2b2b2; stroke:none;" d="M2301 2389L2301 2390L2305 2390L2301 2389M2386 2389L2386 2390L2397 2390L2386 2389M2426 2389L2427 2390L2426 2389M834 2390L835 2391L834 2390M860 2390L861 2391L860 2390M961 2390L961 2391L964 2391L961 2390M976.667 2390.33L977.333 2390.67L976.667 2390.33M1019 2390L1019 2391L1022 2391L1019 2390M1034.67 2390.33L1035.33 2390.67L1034.67 2390.33z"/>
<path style="fill:#f5b2fe; stroke:none;" d="M1062 2390L1063 2391L1062 2390z"/>
<path style="fill:#b2b2b2; stroke:none;" d="M1112 2390L1112 2391L1115 2391L1112 2390M1136.67 2390.33L1137.33 2390.67L1136.67 2390.33M1161.33 2390.67L1161.67 2391.33L1161.33 2390.67M1210 2390L1211 2391L1210 2390M1255 2390L1255 2391L1267 2391L1255 2390M1286 2390L1286 2443L1287 2443L1287 2391L1312 2391L1286 2390M1474 2390L1475 2391L1474 2390M1518.67 2390.33L1519.33 2390.67L1518.67 2390.33M1542 2390L1543 2391L1542 2390M1572 2390L1573 2391L1572 2390M1600 2390L1600 2391L1604 2391L1600 2390z"/>
<path style="fill:#f5b2fe; stroke:none;" d="M1604 2390L1605 2391L1604 2390M1613 2390L1614 2391L1613 2390z"/>
<path style="fill:#b2b2b2; stroke:none;" d="M1614 2390L1614 2391L1618 2391L1614 2390M1688 2390L1688 2391L1691 2391L1688 2390M1704 2390L1704 2391L1707 2391L1704 2390M1833.33 2390.67L1833.67 2391.33L1833.33 2390.67M1888 2390L1889 2391L1888 2390M2113 2390L2114 2391L2113 2390M2136 2390L2137 2391L2136 2390M2168 2390L2169 2391L2168 2390M2212.67 2390.33L2213.33 2390.67L2212.67 2390.33M2236 2390L2237 2391L2236 2390M2260 2390L2261 2391L2260 2390M2282.67 2390.33L2283.33 2390.67L2282.67 2390.33M2305 2390L2305 2391L2308 2391L2305 2390M2382 2390L2382 2391L2385 2391L2382 2390M2398 2390L2398 2391L2401 2391L2398 2390M861.667 2391.33L862.333 2391.67L861.667 2391.33M959.667 2391.33L960.333 2391.67L959.667 2391.33M979 2391L980 2392L979 2391M1017.67 2391.33L1018.33 2391.67L1017.67 2391.33M1037 2391L1038 2392L1037 2391M1062 2391L1063 2392L1062 2391M1099 2391L1100 2392L1099 2391M1110.67 2391.33L1111.33 2391.67L1110.67 2391.33M1138 2391L1139 2392L1138 2391M1232 2391L1232 2392L1243 2392L1232 2391M1520 2391L1521 2392L1520 2391M1543 2391L1544 2392L1543 2391M1571 2391L1572 2392L1571 2391M1598.67 2391.33L1599.33 2391.67L1598.67 2391.33M1619 2391L1619 2392L1622 2392L1619 2391M1630.33 2391.67L1630.67 2392.33L1630.33 2391.67M1686 2391L1687 2392L1686 2391z"/>
<path style="fill:#f5b2fe; stroke:none;" d="M1687 2391L1688 2392L1687 2391z"/>
<path style="fill:#b2b2b2; stroke:none;" d="M1707.67 2391.33L1708.33 2391.67L1707.67 2391.33M1733.33 2391.67L1733.67 2392.33L1733.33 2391.67M1851 2391L1852 2392L1851 2391M2112 2391L2113 2392L2112 2391M2135 2391L2136 2392L2135 2391M2214 2391L2215 2392L2214 2391M2237 2391L2238 2392L2237 2391M2281 2391L2282 2392L2281 2391M2309 2391L2309 2392L2312 2392L2309 2391M2320 2391L2321 2392L2320 2391M2380 2391L2381 2392L2380 2391z"/>
<path style="fill:#f5b2fe; stroke:none;" d="M2381 2391L2382 2392L2381 2391z"/>
<path style="fill:#b2b2b2; stroke:none;" d="M2401.67 2391.33L2402.33 2391.67L2401.67 2391.33M2427.33 2391.67L2427.67 2392.33L2427.33 2391.67M835 2392L836 2393L835 2392M863 2392L864 2393L863 2392z"/>
<path style="fill:#f5b2fe; stroke:none;" d="M864 2392L865 2393L864 2392z"/>
<path style="fill:#b2b2b2; stroke:none;" d="M958 2392L959 2393L958 2392M980 2392L981 2393L980 2392M1016 2392L1017 2393L1016 2392M1038 2392L1039 2393L1038 2392M1107.67 2392.33L1108.33 2392.67L1107.67 2392.33M1139 2392L1140 2393L1139 2392M1228 2392L1228 2393L1231 2393L1228 2392z"/>
<path style="fill:#f5b2fe; stroke:none;" d="M1243 2392L1244 2393L1243 2392z"/>
<path style="fill:#b2b2b2; stroke:none;" d="M1244.67 2392.33L1245.33 2392.67L1244.67 2392.33M1473 2392L1474 2393L1473 2392M1522 2392L1523 2393L1522 2392M1596.67 2392.33L1597.33 2392.67L1596.67 2392.33M1622 2392L1622 2393L1625 2393L1622 2392M1684 2392L1685 2393L1684 2392M1709 2392L1710 2393L1709 2392M1887.33 2392.67L1887.67 2393.33L1887.33 2392.67M1904.33 2392.67L1904.67 2393.33L1904.33 2392.67z"/>
<path style="fill:#f5b2fe; stroke:none;" d="M2111 2392L2112 2393L2111 2392z"/>
<path style="fill:#b2b2b2; stroke:none;" d="M2134 2392L2135 2393L2134 2392M2167 2392L2168 2393L2167 2392M2216 2392L2217 2393L2216 2392M2280 2392L2281 2393L2280 2392M2312.67 2392.33L2313.33 2392.67L2312.67 2392.33M2378 2392L2379 2393L2378 2392M2403 2392L2404 2393L2403 2392M865 2393L866 2394L865 2393z"/>
<path style="fill:#f5b2fe; stroke:none;" d="M866 2393L867 2394L866 2393z"/>
<path style="fill:#b2b2b2; stroke:none;" d="M956 2393L957 2394L956 2393z"/>
<path style="fill:#f5b2fe; stroke:none;" d="M957 2393L958 2394L957 2393M981 2393L982 2394L981 2393z"/>
<path style="fill:#b2b2b2; stroke:none;" d="M1014 2393L1015 2394L1014 2393M1100 2393L1101 2394L1100 2393M1105.67 2393.33L1106.33 2393.67L1105.67 2393.33M1140 2393L1141 2394L1140 2393z"/>
<path style="fill:#f5b2fe; stroke:none;" d="M1162 2393L1163 2394L1162 2393z"/>
<path style="fill:#b2b2b2; stroke:none;" d="M1225.67 2393.33L1226.33 2393.67L1225.67 2393.33z"/>
<path style="fill:#f5b2fe; stroke:none;" d="M1227 2393L1228 2394L1227 2393z"/>
<path style="fill:#b2b2b2; stroke:none;" d="M1523 2393L1524 2394L1523 2393M1544 2393L1545 2394L1544 2393M1570 2393L1571 2394L1570 2393M1595 2393L1596 2394L1595 2393z"/>
<path style="fill:#f5b2fe; stroke:none;" d="M1625 2393L1626 2394L1625 2393z"/>
<path style="fill:#b2b2b2; stroke:none;" d="M1626.67 2393.33L1627.33 2393.67L1626.67 2393.33M1682.67 2393.33L1683.33 2393.67L1682.67 2393.33M1710 2393L1711 2394L1710 2393M1834.33 2393.67L1834.67 2394.33L1834.33 2393.67z"/>
<path style="fill:#f5b2fe; stroke:none;" d="M1852 2393L1853 2394L1852 2393z"/>
<path style="fill:#b2b2b2; stroke:none;" d="M2133 2393L2134 2394L2133 2393M2217 2393L2218 2394L2217 2393M2238 2393L2239 2394L2238 2393M2259 2393L2259 2397L2260 2397L2259 2393M2279 2393L2280 2394L2279 2393M2315.67 2393.33L2316.33 2393.67L2315.67 2393.33M2319 2393L2320 2394L2319 2393M2376.67 2393.33L2377.33 2393.67L2376.67 2393.33M2404 2393L2405 2394L2404 2393M836 2394L837 2395L836 2394M867.667 2394.33L868.333 2394.67L867.667 2394.33M955 2394L956 2395L955 2394M982 2394L983 2395L982 2394M1013 2394L1014 2395L1013 2394M1063.33 2394.67L1063.67 2395.33L1063.33 2394.67M1102.67 2394.33L1103.33 2394.67L1102.67 2394.33M1141 2394L1142 2395L1141 2394M1162.33 2394.67L1162.67 2395.33L1162.33 2394.67M1223.67 2394.33L1224.33 2394.67L1223.67 2394.33M1472 2394L1473 2395L1472 2394M1524 2394L1525 2395L1524 2394M1593 2394L1594 2395L1593 2394M1628.67 2394.33L1629.33 2394.67L1628.67 2394.33M1681 2394L1682 2395L1681 2394M1711 2394L1712 2395L1711 2394z"/>
<path style="fill:#f5b2fe; stroke:none;" d="M1734 2394L1735 2395L1734 2394z"/>
<path style="fill:#b2b2b2; stroke:none;" d="M1852 2394L1853 2395L1852 2394M2132 2394L2133 2395L2132 2394M2166 2394L2167 2395L2166 2394M2218 2394L2219 2395L2218 2394M2317.67 2394.33L2318.33 2394.67L2317.67 2394.33M2375 2394L2376 2395L2375 2394M2405 2394L2406 2395L2405 2394z"/>
<path style="fill:#f5b2fe; stroke:none;" d="M2428 2394L2429 2395L2428 2394z"/>
<path style="fill:#b2b2b2; stroke:none;" d="M837 2395L838 2396L837 2395M869.667 2395.33L870.333 2395.67L869.667 2395.33M983 2395L984 2396L983 2395M1012 2395L1013 2396L1012 2395M1041 2395L1042 2396L1041 2395M1101 2395L1102 2396L1101 2395M1222 2395L1223 2396L1222 2395M1569 2395L1570 2396L1569 2395M1592 2395L1593 2396L1592 2395M1680 2395L1681 2396L1680 2395M1712 2395L1713 2396L1712 2395M1734.33 2395.67L1734.67 2396.33L1734.33 2395.67M1886.33 2395.67L1886.67 2396.33L1886.33 2395.67M1903 2395L1904 2396L1903 2395M2131 2395L2132 2396L2131 2395M2239.33 2395.67L2239.67 2396.33L2239.33 2395.67M2374 2395L2375 2396L2374 2395M2406 2395L2407 2396L2406 2395M2428.33 2395.67L2428.67 2396.33L2428.33 2395.67M871.667 2396.33L872.333 2396.67L871.667 2396.33z"/>
<path style="fill:#f5b2fe; stroke:none;" d="M954 2396L955 2397L954 2396z"/>
<path style="fill:#b2b2b2; stroke:none;" d="M1042 2396L1043 2397L1042 2396M1142 2396L1143 2397L1142 2396M1221 2396L1222 2397L1221 2396M1471 2396L1472 2397L1471 2396M1525 2396L1526 2397L1525 2396M1545 2396L1546 2397L1545 2396M1591 2396L1592 2397L1591 2396M1679 2396L1680 2397L1679 2396M1835.33 2396.67L1835.67 2397.33L1835.33 2396.67M1853.33 2396.67L1853.67 2397.33L1853.33 2396.67z"/>
<path style="fill:#f5b2fe; stroke:none;" d="M1903 2396L1904 2397L1903 2396z"/>
<path style="fill:#b2b2b2; stroke:none;" d="M2108 2396L2109 2397L2108 2396M2130 2396L2131 2397L2130 2396M2165 2396L2166 2397L2165 2396M2219 2396L2220 2397L2219 2396M2278 2396L2278 2399L2279 2399L2278 2396M2373 2396L2374 2397L2373 2396M838 2397L839 2398L838 2397M874 2397L875 2398L874 2397z"/>
<path style="fill:#f5b2fe; stroke:none;" d="M875 2397L876 2398L875 2397z"/>
<path style="fill:#b2b2b2; stroke:none;" d="M953 2397L954 2398L953 2397M984 2397L985 2398L984 2397M1011 2397L1012 2398L1011 2397z"/>
<path style="fill:#f5b2fe; stroke:none;" d="M1042 2397L1043 2398L1042 2397z"/>
<path style="fill:#b2b2b2; stroke:none;" d="M1219 2397L1220 2398L1219 2397M1491 2397L1492 2398L1491 2397M1526 2397L1527 2398L1526 2397M1568.33 2397.67L1568.67 2398.33L1568.33 2397.67z"/>
<path style="fill:#f5b2fe; stroke:none;" d="M1679 2397L1680 2398L1679 2397z"/>
<path style="fill:#b2b2b2; stroke:none;" d="M1713 2397L1714 2398L1713 2397M2107 2397L2108 2398L2107 2397M2185 2397L2186 2398L2185 2397M2220 2397L2221 2398L2220 2397z"/>
<path style="fill:#f5b2fe; stroke:none;" d="M2373 2397L2374 2398L2373 2397z"/>
<path style="fill:#b2b2b2; stroke:none;" d="M2407 2397L2408 2398L2407 2397M839 2398L840 2399L839 2398M876.667 2398.33L877.333 2398.67L876.667 2398.33M1010 2398L1011 2399L1010 2398M1218 2398L1219 2399L1218 2398M1470 2398L1471 2399L1470 2398M1490 2398L1491 2399L1490 2398z"/>
<path style="fill:#f5b2fe; stroke:none;" d="M1526 2398L1527 2399L1526 2398z"/>
<path style="fill:#b2b2b2; stroke:none;" d="M1546.33 2398.67L1546.67 2399.33L1546.33 2398.67M1590 2398L1591 2399L1590 2398M1678 2398L1679 2399L1678 2398z"/>
<path style="fill:#f5b2fe; stroke:none;" d="M1825 2398L1825 2402L1826 2402L1825 2398z"/>
<path style="fill:#b2b2b2; stroke:none;" d="M1885 2398L1886 2399L1885 2398M1902 2398L1903 2399L1902 2398M2106 2398L2107 2399L2106 2398z"/>
<path style="fill:#f5b2fe; stroke:none;" d="M2129 2398L2130 2399L2129 2398z"/>
<path style="fill:#b2b2b2; stroke:none;" d="M2164 2398L2165 2399L2164 2398M2184.33 2398.67L2184.67 2399.33L2184.33 2398.67z"/>
<path style="fill:#f5b2fe; stroke:none;" d="M2220 2398L2221 2399L2220 2398z"/>
<path style="fill:#b2b2b2; stroke:none;" d="M2240.33 2398.67L2240.67 2399.33L2240.33 2398.67M2372 2398L2373 2399L2372 2398M840 2399L841 2400L840 2399M879 2399L880 2400L879 2399M952 2399L953 2400L952 2399M985.333 2399.67L985.667 2400.33L985.333 2399.67M1043 2399L1044 2400L1043 2399z"/>
<path style="fill:#f5b2fe; stroke:none;" d="M1064 2399L1065 2400L1064 2399z"/>
<path style="fill:#b2b2b2; stroke:none;" d="M1143.33 2399.67L1143.67 2400.33L1143.33 2399.67M1163 2399L1163 2467L1150 2467L1150 2468L1164 2468L1164 2421L1163 2399M1217 2399L1218 2400L1217 2399M1589 2399L1590 2400L1589 2399M1714.33 2399.67L1714.67 2400.33L1714.33 2399.67M1836.33 2399.67L1836.67 2400.33L1836.33 2399.67M1854.33 2399.67L1854.67 2400.33L1854.33 2399.67M2105 2399L2106 2400L2105 2399M2128 2399L2129 2400L2128 2399M2221.33 2399.67L2221.67 2400.33L2221.33 2399.67M2408.33 2399.67L2408.67 2400.33L2408.33 2399.67M841 2400L842 2401L841 2400M881 2400L882 2401L881 2400M1009 2400L1010 2401L1009 2400M1064 2400L1064 2467L1045 2467L1045 2468L1065 2468L1065 2421L1064 2400M1216 2400L1217 2401L1216 2400M1489.33 2400.67L1489.67 2401.33L1489.33 2400.67M1527 2400L1528 2401L1527 2400M1567.33 2400.67L1567.67 2401.33L1567.33 2400.67M1677 2400L1678 2401L1677 2400M1735 2400L1735 2467L1716 2467L1716 2468L1736 2468L1736 2422L1735 2400M2104 2400L2105 2401L2104 2400M2127 2400L2128 2401L2127 2400M2259 2400L2259 2404L2260 2404L2259 2400z"/>
<path style="fill:#f5b2fe; stroke:none;" d="M2279 2400L2280 2401L2279 2400z"/>
<path style="fill:#b2b2b2; stroke:none;" d="M2371 2400L2372 2401L2371 2400M2429 2400L2429 2467L2410 2467L2410 2468L2430 2468L2430 2422L2429 2400M842 2401L843 2402L842 2401M883 2401L884 2402L883 2401z"/>
<path style="fill:#f5b2fe; stroke:none;" d="M884 2401L885 2402L884 2401z"/>
<path style="fill:#b2b2b2; stroke:none;" d="M951 2401L952 2402L951 2401z"/>
<path style="fill:#f5b2fe; stroke:none;" d="M1009 2401L1010 2402L1009 2401z"/>
<path style="fill:#b2b2b2; stroke:none;" d="M1469 2401L1470 2402L1469 2401M1588 2401L1589 2402L1588 2401M1884 2401L1885 2402L1884 2401M1901 2401L1902 2402L1901 2401M2103 2401L2104 2402L2103 2401M2126 2401L2127 2402L2126 2401M2163 2401L2164 2402L2163 2401M2183 2401L2184 2402L2183 2401z"/>
<path style="fill:#f5b2fe; stroke:none;" d="M2241 2401L2242 2402L2241 2401z"/>
<path style="fill:#b2b2b2; stroke:none;" d="M2279 2401L2280 2402L2279 2401M843 2402L844 2403L843 2402M885 2402L886 2403L885 2402z"/>
<path style="fill:#f5b2fe; stroke:none;" d="M886 2402L887 2403L886 2402z"/>
<path style="fill:#b2b2b2; stroke:none;" d="M1044 2402L1044 2405L1045 2405L1044 2402M1215 2402L1216 2403L1215 2402M1547.33 2402.67L1547.67 2403.33L1547.33 2402.67M1676 2402L1677 2403L1676 2402M1825 2402L1825 2467L1826 2467L1826 2423L1825 2402M1837 2402L1838 2403L1837 2402M1855.33 2402.67L1855.67 2403.33L1855.33 2402.67M2102 2402L2103 2403L2102 2402M2125 2402L2126 2403L2125 2402M2222 2402L2222 2405L2223 2405L2222 2402M2241.33 2402.67L2241.67 2403.33L2241.33 2402.67M2280 2402L2281 2403L2280 2402M2370 2402L2371 2403L2370 2402M845 2403L846 2404L845 2403M887 2403L888 2404L887 2403M986 2403L986 2406L987 2406L986 2403M1008 2403L1009 2404L1008 2403M1214 2403L1215 2404L1214 2403M1488.33 2403.67L1488.67 2404.33L1488.33 2403.67M1528.33 2403.67L1528.67 2404.33L1528.33 2403.67z"/>
<path style="fill:#f5b2fe; stroke:none;" d="M1566 2403L1567 2404L1566 2403z"/>
<path style="fill:#b2b2b2; stroke:none;" d="M1587 2403L1588 2404L1587 2403M1715 2403L1715 2406L1716 2406L1715 2403z"/>
<path style="fill:#f5b2fe; stroke:none;" d="M1883 2403L1884 2404L1883 2403z"/>
<path style="fill:#b2b2b2; stroke:none;" d="M1900.33 2403.67L1900.67 2404.33L1900.33 2403.67M2101 2403L2102 2404L2101 2403M2124 2403L2125 2404L2124 2403M2182.33 2403.67L2182.67 2404.33L2182.33 2403.67M2281 2403L2282 2404L2281 2403M2409 2403L2409 2406L2410 2406L2409 2403M846 2404L847 2405L846 2404M889 2404L890 2405L889 2404M950 2404L951 2405L950 2404z"/>
<path style="fill:#f5b2fe; stroke:none;" d="M1008 2404L1009 2405L1008 2404z"/>
<path style="fill:#b2b2b2; stroke:none;" d="M1468.33 2404.67L1468.67 2405.33L1468.33 2404.67M1566 2404L1567 2405L1566 2404z"/>
<path style="fill:#f5b2fe; stroke:none;" d="M1587 2404L1588 2405L1587 2404z"/>
<path style="fill:#b2b2b2; stroke:none;" d="M1883 2404L1884 2405L1883 2404z"/>
<path style="fill:#f5b2fe; stroke:none;" d="M1913 2404L1913 2467L1914 2467L1914 2424L1913 2404z"/>
<path style="fill:#b2b2b2; stroke:none;" d="M2100 2404L2101 2405L2100 2404M2123 2404L2124 2405L2123 2404M2162.33 2404.67L2162.67 2405.33L2162.33 2404.67M2282 2404L2283 2405L2282 2404M847.667 2405.33L848.333 2405.67L847.667 2405.33M891 2405L892 2406L891 2405M1213 2405L1214 2406L1213 2405M1675.33 2405.67L1675.67 2406.33L1675.33 2405.67M1838 2405L1839 2406L1838 2405M1856.33 2405.67L1856.67 2406.33L1856.33 2405.67M2099 2405L2100 2406L2099 2405M2122 2405L2123 2406L2122 2405M2283 2405L2284 2406L2283 2405M2369.33 2405.67L2369.67 2406.33L2369.33 2405.67M849 2406L850 2407L849 2406M892.667 2406.33L893.333 2406.67L892.667 2406.33z"/>
<path style="fill:#f5b2fe; stroke:none;" d="M986 2406L987 2407L986 2406z"/>
<path style="fill:#b2b2b2; stroke:none;" d="M1586.33 2406.67L1586.67 2407.33L1586.33 2406.67M1882.33 2406.67L1882.67 2407.33L1882.33 2406.67M1899 2406L1900 2407L1899 2406z"/>
<path style="fill:#f5b2fe; stroke:none;" d="M2089 2406L2090 2407L2089 2406M2098 2406L2099 2407L2098 2406z"/>
<path style="fill:#b2b2b2; stroke:none;" d="M2121 2406L2122 2407L2121 2406M2260.33 2406.67L2260.67 2407.33L2260.33 2406.67M2285 2406L2286 2407L2285 2406z"/>
<path style="fill:#f5b2fe; stroke:none;" d="M850 2407L851 2408L850 2407z"/>
<path style="fill:#b2b2b2; stroke:none;" d="M851 2407L852 2408L851 2407M894 2407L895 2408L894 2407M1007.33 2407.67L1007.67 2408.33L1007.33 2407.67M1212.33 2407.67L1212.67 2408.33L1212.33 2407.67M1487 2407L1487 2410L1488 2410L1487 2407z"/>
<path style="fill:#f5b2fe; stroke:none;" d="M1899 2407L1900 2408L1899 2407z"/>
<path style="fill:#b2b2b2; stroke:none;" d="M2120 2407L2121 2408L2120 2407M2181 2407L2181 2411L2182 2411L2181 2407M2242 2407L2242 2425L2181 2425L2181 2426L2243 2426L2242 2407M2287 2407L2288 2408L2287 2407M852.667 2408.33L853.333 2408.67L852.667 2408.33M895 2408L896 2409L895 2408M949 2408L949 2411L950 2411L949 2408z"/>
<path style="fill:#f5b2fe; stroke:none;" d="M1467 2408L1468 2409L1467 2408z"/>
<path style="fill:#b2b2b2; stroke:none;" d="M1548 2408L1548 2425L1487 2425L1487 2426L1549 2426L1548 2408M1565 2408L1565 2411L1566 2411L1565 2408M1839 2408L1840 2409L1839 2408M1857 2408L1858 2409L1857 2408M2097 2408L2098 2409L2097 2408M2119 2408L2120 2409L2119 2408z"/>
<path style="fill:#f5b2fe; stroke:none;" d="M2161 2408L2162 2409L2161 2408z"/>
<path style="fill:#b2b2b2; stroke:none;" d="M2223 2408L2223 2411L2224 2411L2223 2408M2289 2408L2290 2409L2289 2408M854.667 2409.33L855.333 2409.67L854.667 2409.33M897 2409L898 2410L897 2409M1467.33 2409.67L1467.67 2410.33L1467.33 2409.67M1529.33 2409.67L1529.67 2410.33L1529.33 2409.67M1674 2409L1674 2412L1675 2412L1674 2409M1881.33 2409.67L1881.67 2410.33L1881.33 2409.67M1898 2409L1899 2410L1898 2409M2096 2409L2097 2410L2096 2409M2118 2409L2119 2410L2118 2409M2161 2409L2161 2412L2162 2412L2161 2409M2261 2409L2262 2410L2261 2409M2291 2409L2292 2410L2291 2409z"/>
<path style="fill:#f5b2fe; stroke:none;" d="M2292 2409L2293 2410L2292 2409z"/>
<path style="fill:#b2b2b2; stroke:none;" d="M2368 2409L2368 2412L2369 2412L2368 2409M856.667 2410.33L857.333 2410.67L856.667 2410.33M898 2410L899 2411L898 2410M1585 2410L1585 2413L1586 2413L1585 2410M2095 2410L2096 2411L2095 2410M2117 2410L2118 2411L2117 2410M2293.67 2410.33L2294.33 2410.67L2293.67 2410.33M858.667 2411.33L859.333 2411.67L858.667 2411.33M899 2411L900 2412L899 2411z"/>
<path style="fill:#f5b2fe; stroke:none;" d="M1125 2411L1126 2412L1125 2411z"/>
<path style="fill:#b2b2b2; stroke:none;" d="M1126 2411L1126 2412L1144 2412L1126 2411M1211.33 2411.67L1211.67 2412.33L1211.33 2411.67M1488 2411L1488 2412L1529 2412C1518.25 2407.49 1499.7 2411 1488 2411M1840 2411L1841 2412L1840 2411M1858 2411L1859 2412L1858 2411z"/>
<path style="fill:#f5b2fe; stroke:none;" d="M2094 2411L2095 2412L2094 2411z"/>
<path style="fill:#b2b2b2; stroke:none;" d="M2116 2411L2117 2412L2116 2411M2183 2411L2183 2412L2223 2412C2212.49 2407.59 2194.43 2411 2183 2411M2262 2411L2263 2412L2262 2411M2296 2411L2297 2412L2296 2411z"/>
<path style="fill:#f5b2fe; stroke:none;" d="M860 2412L861 2413L860 2412z"/>
<path style="fill:#b2b2b2; stroke:none;" d="M861.667 2412.33L862.333 2412.67L861.667 2412.33M900 2412L901 2413L900 2412z"/>
<path style="fill:#f5b2fe; stroke:none;" d="M1115 2412L1116 2413L1115 2412z"/>
<path style="fill:#b2b2b2; stroke:none;" d="M1116 2412L1116 2413L1121 2413L1116 2412z"/>
<path style="fill:#f5b2fe; stroke:none;" d="M1674 2412L1675 2413L1674 2412z"/>
<path style="fill:#b2b2b2; stroke:none;" d="M1880 2412L1881 2413L1880 2412M1897 2412L1898 2413L1897 2412M2115 2412L2116 2413L2115 2412M2263 2412L2264 2413L2263 2412M2298.67 2412.33L2299.33 2412.67L2298.67 2412.33z"/>
<path style="fill:#f5b2fe; stroke:none;" d="M2368 2412L2369 2413L2368 2412z"/>
<path style="fill:#b2b2b2; stroke:none;" d="M863.667 2413.33L864.333 2413.67L863.667 2413.33M901 2413L902 2414L901 2413M1110 2413L1110 2414L1113 2414L1110 2413M1841.33 2413.67L1841.67 2414.33L1841.33 2413.67z"/>
<path style="fill:#f5b2fe; stroke:none;" d="M1859 2413L1860 2414L1859 2413z"/>
<path style="fill:#b2b2b2; stroke:none;" d="M2093 2413L2094 2414L2093 2413M2114 2413L2115 2414L2114 2413M2301 2413L2302 2414L2301 2413M865.667 2414.33L866.333 2414.67L865.667 2414.33z"/>
<path style="fill:#f5b2fe; stroke:none;" d="M1106 2414L1107 2415L1106 2414z"/>
<path style="fill:#b2b2b2; stroke:none;" d="M1107.67 2414.33L1108.33 2414.67L1107.67 2414.33M1859 2414L1860 2415L1859 2414M1896.33 2414.67L1896.67 2415.33L1896.33 2414.67M2092 2414L2093 2415L2092 2414M2264 2414L2265 2415L2264 2414M2303.67 2414.33L2304.33 2414.67L2303.67 2414.33M868.667 2415.33L869.333 2415.67L868.667 2415.33M1006 2415L1006 2467L987 2467L987 2468C991.557 2468 1001.69 2469.91 1005.4 2466.97C1008.35 2464.63 1007 2457.32 1007 2454C1007 2442.84 1010.31 2425.27 1006 2415M1104 2415L1105 2416L1104 2415M1879 2415L1880 2416L1879 2415M2088 2415L2088 2418L2089 2418L2088 2415M2091 2415L2092 2416L2091 2415M2114 2415L2115 2416L2114 2415M2265 2415L2266 2416L2265 2415M2305.67 2415.33L2306.33 2415.67L2305.67 2415.33M870.667 2416.33L871.333 2416.67L870.667 2416.33M903 2416L904 2417L903 2416M1101.67 2416.33L1102.33 2416.67L1101.67 2416.33z"/>
<path style="fill:#f5b2fe; stroke:none;" d="M1466 2416L1467 2417L1466 2416z"/>
<path style="fill:#b2b2b2; stroke:none;" d="M1564 2416L1564 2428L1565 2428L1564 2416M1842.33 2416.67L1842.67 2417.33L1842.33 2416.67M1860.33 2416.67L1860.67 2417.33L1860.33 2416.67M2090 2416L2091 2417L2090 2416z"/>
<path style="fill:#f5b2fe; stroke:none;" d="M2160 2416L2161 2417L2160 2416z"/>
<path style="fill:#b2b2b2; stroke:none;" d="M2266 2416L2267 2417L2266 2416M2308 2416L2309 2417L2308 2416M872.667 2417.33L873.333 2417.67L872.667 2417.33z"/>
<path style="fill:#f5b2fe; stroke:none;" d="M904 2417L905 2418L904 2417z"/>
<path style="fill:#b2b2b2; stroke:none;" d="M948 2417L948 2467L929 2467L929 2468C933.557 2468 943.692 2469.91 947.397 2466.97C950.216 2464.74 949 2458.15 949 2455C949 2444.1 952.208 2427.03 948 2417M1099.67 2417.33L1100.33 2417.67L1099.67 2417.33M1466 2417L1466 2427L1467 2427L1466 2417M1878.33 2417.67L1878.67 2418.33L1878.33 2417.67M1895.33 2417.67L1895.67 2418.33L1895.33 2417.67M2115 2417L2116 2418L2115 2417M2160 2417L2160 2427L2161 2427L2160 2417M2268 2417L2269 2418L2268 2417M2310 2417L2311 2418L2310 2417M874.667 2418.33L875.333 2418.67L874.667 2418.33M1097.67 2418.33L1098.33 2418.67L1097.67 2418.33M1210 2418L1210 2467L1191 2467L1191 2468L1211 2468C1211 2453.95 1215.41 2430.89 1210 2418M2116 2418L2117 2419L2116 2418M2269 2418L2270 2419L2269 2418M2312 2418L2313 2419L2312 2418M876 2419L876 2420L879 2421L876 2419M905 2419L906 2420L905 2419M1096 2419L1097 2420L1096 2419M1843.33 2419.67L1843.67 2420.33L1843.33 2419.67M1861.33 2419.67L1861.67 2420.33L1861.33 2419.67M2117 2419L2118 2420L2117 2419M2270.67 2419.33L2271.33 2419.67L2270.67 2419.33M2314 2419L2315 2420L2314 2419z"/>
<path style="fill:#f5b2fe; stroke:none;" d="M877 2420L878 2421L877 2420M1094 2420L1095 2421L1094 2420z"/>
<path style="fill:#b2b2b2; stroke:none;" d="M1095 2420L1096 2421L1095 2420M1877.33 2420.67L1877.67 2421.33L1877.33 2420.67M1894 2420L1895 2421L1894 2420M2272 2420L2273 2421L2272 2420M2315 2420L2316 2421L2315 2420M879.667 2421.33L880.333 2421.67L879.667 2421.33M1093 2421L1094 2422L1093 2421z"/>
<path style="fill:#f5b2fe; stroke:none;" d="M1894 2421L1895 2422L1894 2421z"/>
<path style="fill:#b2b2b2; stroke:none;" d="M2118 2421L2119 2422L2118 2421z"/>
<path style="fill:#f5b2fe; stroke:none;" d="M2273 2421L2274 2422L2273 2421z"/>
<path style="fill:#b2b2b2; stroke:none;" d="M2274 2421L2275 2422L2274 2421M2317 2421L2318 2422L2317 2421M881 2422L882 2423L881 2422M906 2422L907 2423L906 2422M1092 2422L1093 2423L1092 2422M1844.33 2422.67L1844.67 2423.33L1844.33 2422.67M1862.33 2422.67L1862.67 2423.33L1862.33 2422.67M2119 2422L2120 2423L2119 2422M2275.67 2422.33L2276.33 2422.67L2275.67 2422.33M2318 2422L2319 2423L2318 2422M882 2423L883 2424L882 2423M1091 2423L1092 2424L1091 2423M1140 2423L1140 2424L1144 2424L1140 2423M1876 2423L1877 2424L1876 2423M1893 2423L1894 2424L1893 2423M2120 2423L2121 2424L2120 2423M2277.67 2423.33L2278.33 2423.67L2277.67 2423.33M2319 2423L2320 2424L2319 2423M883 2424L884 2425L883 2424M1107 2435L1108 2435C1114.99 2425.32 1126.03 2425 1137 2425C1127.43 2420.98 1111.46 2425.52 1107 2435z"/>
<path style="fill:#f5b2fe; stroke:none;" d="M1137.67 2424.33L1138.33 2424.67L1137.67 2424.33z"/>
<path style="fill:#ffffff; stroke:none;" d="M1144 2424C1137.79 2424.27 1131.16 2424.49 1125 2425.29C1121.63 2425.73 1118.08 2426.45 1115 2427.92C1106.83 2431.82 1102.26 2443.88 1110.13 2450.57C1119.93 2458.9 1137.96 2452.06 1142.19 2441C1144.28 2435.53 1144 2429.75 1144 2424z"/>
<path style="fill:#f5b2fe; stroke:none;" d="M2279 2424L2280 2425L2279 2424z"/>
<path style="fill:#b2b2b2; stroke:none;" d="M2280.67 2424.33L2281.33 2424.67L2280.67 2424.33M2320 2424L2321 2425L2320 2424M884 2425L885 2426L884 2425M907.333 2425.67L907.667 2426.33L907.333 2425.67M1845 2425L1846 2426L1845 2425M1863.33 2425.67L1863.67 2426.33L1863.33 2425.67M2121 2425L2122 2426L2121 2425M2282.67 2425.33L2283.33 2425.67L2282.67 2425.33M2321 2425L2322 2426L2321 2425M885 2426L886 2427L885 2426M1089 2426L1090 2427L1089 2426z"/>
<path style="fill:#f5b2fe; stroke:none;" d="M1845 2426L1846 2427L1845 2426z"/>
<path style="fill:#b2b2b2; stroke:none;" d="M1875 2426L1876 2427L1875 2426M1892 2426L1893 2427L1892 2426M2122 2426L2123 2427L2122 2426M2284.67 2426.33L2285.33 2426.67L2284.67 2426.33M2322 2426L2323 2427L2322 2426M886 2427L887 2428L886 2427z"/>
<path style="fill:#f5b2fe; stroke:none;" d="M1466 2427L1467 2428L1466 2427z"/>
<path style="fill:#b2b2b2; stroke:none;" d="M2099.67 2427.33L2100.33 2427.67L2099.67 2427.33M2123 2427L2124 2428L2123 2427z"/>
<path style="fill:#f5b2fe; stroke:none;" d="M2286 2427L2287 2428L2286 2427z"/>
<path style="fill:#b2b2b2; stroke:none;" d="M2287.67 2427.33L2288.33 2427.67L2287.67 2427.33M1088 2428L1089 2429L1088 2428M1846 2428L1847 2429L1846 2428M1864 2428L1865 2429L1864 2428z"/>
<path style="fill:#f5b2fe; stroke:none;" d="M1874 2428L1875 2429L1874 2428z"/>
<path style="fill:#b2b2b2; stroke:none;" d="M1891.33 2428.67L1891.67 2429.33L1891.33 2428.67M2098 2428L2099 2429L2098 2428M2101 2428L2102 2429L2101 2428M2289.67 2428.33L2290.33 2428.67L2289.67 2428.33M2323 2428L2324 2429L2323 2428M887 2429L888 2430L887 2429M1874 2429L1875 2430L1874 2429M2097 2429L2098 2430L2097 2429M2102 2429L2103 2430L2102 2429M2124 2429L2125 2430L2124 2429M2291 2429L2291 2430L2294 2430L2291 2429M2324.33 2429.67L2324.67 2430.33L2324.33 2429.67M908 2430L908 2438L909 2438L908 2430M1087 2430L1088 2431L1087 2430M1585 2430L1585 2433L1586 2433L1585 2430M2096 2430L2097 2431L2096 2430M2125 2430L2126 2431L2125 2430z"/>
<path style="fill:#f5b2fe; stroke:none;" d="M2181 2430L2182 2431L2181 2430z"/>
<path style="fill:#b2b2b2; stroke:none;" d="M2294.67 2430.33L2295.33 2430.67L2294.67 2430.33M1487 2431L1487 2434L1488 2434L1487 2431M1847 2431L1848 2432L1847 2431M1865 2431L1866 2432L1865 2431M1873.33 2431.67L1873.67 2432.33L1873.33 2431.67M1890.33 2431.67L1890.67 2432.33L1890.33 2431.67M2022 2431L2022 2434L2023 2434L2022 2431M2094.67 2431.33L2095.33 2431.67L2094.67 2431.33M2103 2431L2104 2432L2103 2431M2126 2431L2127 2432L2126 2431M2181 2431L2181 2434L2182 2434L2181 2431M2296.67 2431.33L2297.33 2431.67L2296.67 2431.33M888 2432L888 2440L889 2440L888 2432M1086.33 2432.67L1086.67 2433.33L1086.33 2432.67M1467 2432L1467 2435L1468 2435L1467 2432M2093 2432L2094 2433L2093 2432M2104 2432L2105 2433L2104 2432M2161 2432L2161 2435L2162 2435L2161 2432M2298.67 2432.33L2299.33 2432.67L2298.67 2432.33M2325 2432L2326 2433L2325 2432M1565 2433L1565 2436L1566 2436L1565 2433M2092 2433L2093 2434L2092 2433M2105 2433L2106 2434L2105 2433M2127 2433L2128 2434L2127 2433M2300 2433L2301 2434L2300 2433M1848 2434L1849 2435L1848 2434M1866 2434L1867 2435L1866 2434M1872.33 2434.67L1872.67 2435.33L1872.33 2434.67M1889 2434L1890 2435L1889 2434M2091 2434L2092 2435L2091 2434z"/>
<path style="fill:#f5b2fe; stroke:none;" d="M2105 2434L2106 2435L2105 2434z"/>
<path style="fill:#b2b2b2; stroke:none;" d="M2128 2434L2129 2435L2128 2434M2301.67 2434.33L2302.33 2434.67L2301.67 2434.33M1586.33 2435.67L1586.67 2436.33L1586.33 2435.67M2090 2435L2091 2436L2090 2435M2106 2435L2107 2436L2106 2435M2129 2435L2130 2436L2129 2435z"/>
<path style="fill:#f5b2fe; stroke:none;" d="M2182 2435L2183 2436L2182 2435z"/>
<path style="fill:#b2b2b2; stroke:none;" d="M2303 2435L2304 2436L2303 2435M2326 2435L2326 2439L2327 2439L2326 2435M1106.33 2436.67L1106.67 2437.33L1106.33 2436.67M1143 2436L1143 2439L1144 2439L1143 2436M1488 2436L1489 2437L1488 2436M1849.33 2436.67L1849.67 2437.33L1849.33 2436.67z"/>
<path style="fill:#f5b2fe; stroke:none;" d="M1867 2436L1868 2437L1867 2436z"/>
<path style="fill:#b2b2b2; stroke:none;" d="M1981 2436L1981 2440L1982 2440L1981 2436z"/>
<path style="fill:#f5b2fe; stroke:none;" d="M2021 2436L2022 2437L2021 2436z"/>
<path style="fill:#b2b2b2; stroke:none;" d="M2089 2436L2089 2467L2090 2467L2089 2436M2107 2436L2108 2437L2107 2436M2182 2436L2183 2437L2182 2436M2304 2436L2305 2437L2304 2436M1085 2437L1085 2446L1086 2446L1085 2437M1468.33 2437.67L1468.67 2438.33L1468.33 2437.67M1867 2437L1868 2438L1867 2437M1871 2437L1872 2438L1871 2437M1888 2437L1889 2438L1888 2437M2021 2437L2022 2438L2021 2437M2130 2437L2131 2438L2130 2437M2162.33 2437.67L2162.67 2438.33L2162.33 2437.67M2305 2437L2306 2438L2305 2437z"/>
<path style="fill:#f5b2fe; stroke:none;" d="M908 2438L909 2439L908 2438z"/>
<path style="fill:#b2b2b2; stroke:none;" d="M1566.33 2438.67L1566.67 2439.33L1566.33 2438.67z"/>
<path style="fill:#f5b2fe; stroke:none;" d="M1587 2438L1588 2439L1587 2438z"/>
<path style="fill:#b2b2b2; stroke:none;" d="M2108 2438L2109 2439L2108 2438M2131 2438L2132 2439L2131 2438z"/>
<path style="fill:#f5b2fe; stroke:none;" d="M2183 2438L2184 2439L2183 2438z"/>
<path style="fill:#b2b2b2; stroke:none;" d="M2306 2438L2307 2439L2306 2438M1489 2439L1490 2440L1489 2439M1587 2439L1588 2440L1587 2439M1850.33 2439.67L1850.67 2440.33L1850.33 2439.67M1868.33 2439.67L1868.67 2440.33L1868.33 2439.67M1887.33 2439.67L1887.67 2440.33L1887.33 2439.67M2109 2439L2110 2440L2109 2439M2132 2439L2133 2440L2132 2439M2183 2439L2184 2440L2183 2439z"/>
<path style="fill:#f5b2fe; stroke:none;" d="M2306 2439L2307 2440L2306 2439z"/>
<path style="fill:#b2b2b2; stroke:none;" d="M1142.33 2440.67L1142.67 2441.33L1142.33 2440.67M1870 2440L1871 2441L1870 2440M2020 2440L2021 2441L2020 2440M2110 2440L2111 2441L2110 2440M887.333 2441.67L887.667 2442.33L887.333 2441.67M1469 2441L1470 2442L1469 2441M1490 2441L1491 2442L1490 2441M1588 2441L1589 2442L1588 2441M2133 2441L2134 2442L2133 2441M2163 2441L2164 2442L2163 2441M2184 2441L2185 2442L2184 2441M2307 2441L2307 2446L2308 2446L2307 2441M907.333 2442.67L907.667 2443.33L907.333 2442.67M1567 2442L1568 2443L1567 2442M1851.33 2442.67L1851.67 2443.33L1851.33 2442.67M1869 2442L1870 2443L1869 2442M1886.33 2442.67L1886.67 2443.33L1886.33 2442.67M1982 2442L1983 2443L1982 2442M2019 2442L2020 2443L2019 2442M2111 2442L2112 2443L2111 2442M2134 2442L2135 2443L2134 2442z"/>
<path style="fill:#f5b2fe; stroke:none;" d="M2185 2442L2186 2443L2185 2442M886 2443L887 2444L886 2443z"/>
<path style="fill:#b2b2b2; stroke:none;" d="M1141 2443L1142 2444L1141 2443M1470.33 2443.67L1470.67 2444.33L1470.33 2443.67M1491 2443L1492 2444L1491 2443z"/>
<path style="fill:#f5b2fe; stroke:none;" d="M1567 2443L1568 2444L1567 2443z"/>
<path style="fill:#b2b2b2; stroke:none;" d="M1589 2443L1590 2444L1589 2443M2112 2443L2113 2444L2112 2443M2135 2443L2136 2444L2135 2443M2164.33 2443.67L2164.67 2444.33L2164.33 2443.67M2185 2443L2186 2444L2185 2443M830 2444L830 2463L831 2463L832 2444L830 2444M1140 2444L1141 2445L1140 2444M1492 2444L1493 2445L1492 2444M1590 2444L1591 2445L1590 2444M1983.33 2444.67L1983.67 2445.33L1983.33 2444.67M2018 2444L2019 2445L2018 2444M2113 2444L2114 2445L2113 2444M2186 2444L2187 2445L2186 2444M2326 2444L2326 2448L2327 2448L2326 2444M833.667 2445.33L834.333 2445.67L833.667 2445.33M885 2445L886 2446L885 2445M1106.33 2445.67L1106.67 2446.33L1106.33 2445.67M1287.33 2445.67L1287.67 2446.33L1287.33 2445.67M1493 2445L1494 2446L1493 2445M1568 2445L1569 2446L1568 2445M1852.33 2445.67L1852.67 2446.33L1852.33 2445.67M1885 2445L1886 2446L1885 2445z"/>
<path style="fill:#f5b2fe; stroke:none;" d="M2017 2445L2018 2446L2017 2445z"/>
<path style="fill:#b2b2b2; stroke:none;" d="M2136 2445L2137 2446L2136 2445M2187 2445L2188 2446L2187 2445M835.667 2446.33L836.333 2446.67L835.667 2446.33M884 2446L885 2447L884 2446M906 2446L907 2447L906 2446M1139 2446L1140 2447L1139 2446M1471 2446L1472 2447L1471 2446M1494 2446L1495 2447L1494 2446M1632 2446L1633 2447L1632 2446M1962.33 2446.67L1962.67 2447.33L1962.33 2446.67M1984 2446L1985 2447L1984 2446M2114 2446L2115 2447L2114 2446M2137 2446L2138 2447L2137 2446M2165 2446L2166 2447L2165 2446M2188 2446L2189 2447L2188 2446M838.667 2447.33L839.333 2447.67L838.667 2447.33M883 2447L884 2448L883 2447M1138 2447L1139 2448L1138 2447M1267 2447L1267 2450L1268 2450L1267 2447z"/>
<path style="fill:#f5b2fe; stroke:none;" d="M1288 2447L1289 2448L1288 2447z"/>
<path style="fill:#b2b2b2; stroke:none;" d="M1495 2447L1496 2448L1495 2447M1542.67 2447.33L1543.33 2447.67L1542.67 2447.33M1569 2447L1570 2448L1569 2447M1592 2447L1593 2448L1592 2447M1630.67 2447.33L1631.33 2447.67L1630.67 2447.33M1633 2447L1633 2463L1634 2463L1633 2447M2016 2447L2017 2448L2016 2447M2115 2447L2116 2448L2115 2447M2138 2447L2139 2448L2138 2447M2189 2447L2190 2448L2189 2447M2236.67 2447.33L2237.33 2447.67L2236.67 2447.33M2259 2447L2259 2464L2260 2464L2262 2448L2259 2447M2306.33 2447.67L2306.67 2448.33L2306.33 2447.67M841.667 2448.33L842.333 2448.67L841.667 2448.33M882 2448L883 2449L882 2448M905.333 2448.67L905.667 2449.33L905.333 2448.67M1107 2448L1108 2449L1107 2448M1137 2448L1138 2449L1137 2448M1288 2448L1289 2449L1288 2448M1472 2448L1473 2449L1472 2448M1496 2448L1497 2449L1496 2448M1540.67 2448.33L1541.33 2448.67L1540.67 2448.33M1594 2448L1595 2449L1594 2448M1628.67 2448.33L1629.33 2448.67L1628.67 2448.33M1853 2448L1854 2449L1853 2448M1884 2448L1885 2449L1884 2448M1985 2448L1986 2449L1985 2448M2015 2448L2016 2449L2015 2448M2116 2448L2117 2449L2116 2448M2166 2448L2167 2449L2166 2448M2190 2448L2191 2449L2190 2448M2234.67 2448.33L2235.33 2448.67L2234.67 2448.33M2262.67 2448.33L2263.33 2448.67L2262.67 2448.33z"/>
<path style="fill:#f5b2fe; stroke:none;" d="M2264 2448L2265 2449L2264 2448z"/>
<path style="fill:#b2b2b2; stroke:none;" d="M844 2449L844 2450L847 2450L844 2449M880 2449L881 2450L880 2449M1086.33 2449.67L1086.67 2450.33L1086.33 2449.67M1108 2449L1109 2450L1108 2449M1136 2449L1137 2450L1136 2449M1289 2449L1290 2450L1289 2449M1473 2449L1474 2450L1473 2449M1497 2449L1498 2450L1497 2449M1537.67 2449.33L1538.33 2449.67L1537.67 2449.33M1570 2449L1571 2450L1570 2449M1595 2449L1596 2450L1595 2449M1626.67 2449.33L1627.33 2449.67L1626.67 2449.33z"/>
<path style="fill:#f5b2fe; stroke:none;" d="M1853 2449L1854 2450L1853 2449z"/>
<path style="fill:#b2b2b2; stroke:none;" d="M1986 2449L1987 2450L1986 2449M2013 2449L2014 2450L2013 2449M2139 2449L2140 2450L2139 2449M2167 2449L2168 2450L2167 2449M2191 2449L2192 2450L2191 2449M2231.67 2449.33L2232.33 2449.67L2231.67 2449.33M2265.67 2449.33L2266.33 2449.67L2265.67 2449.33M2305 2449L2306 2450L2305 2449M848 2450L848 2451L851 2451L848 2450z"/>
<path style="fill:#f5b2fe; stroke:none;" d="M851 2450L852 2451L851 2450z"/>
<path style="fill:#b2b2b2; stroke:none;" d="M877.667 2450.33L878.333 2450.67L877.667 2450.33M904 2450L905 2451L904 2450M1109 2450L1110 2451L1109 2450M1134 2450L1135 2451L1134 2450M1290 2450L1291 2451L1290 2450z"/>
<path style="fill:#f5b2fe; stroke:none;" d="M1473 2450L1474 2451L1473 2450z"/>
<path style="fill:#b2b2b2; stroke:none;" d="M1499 2450L1500 2451L1499 2450M1534.67 2450.33L1535.33 2450.67L1534.67 2450.33z"/>
<path style="fill:#f5b2fe; stroke:none;" d="M1570 2450L1571 2451L1570 2450z"/>
<path style="fill:#b2b2b2; stroke:none;" d="M1596.67 2450.33L1597.33 2450.67L1596.67 2450.33z"/>
<path style="fill:#f5b2fe; stroke:none;" d="M1622 2450L1623 2451L1622 2450z"/>
<path style="fill:#b2b2b2; stroke:none;" d="M1623.67 2450.33L1624.33 2450.67L1623.67 2450.33M1883.33 2450.67L1883.67 2451.33L1883.33 2450.67M1963.33 2450.67L1963.67 2451.33L1963.33 2450.67M1987.67 2450.33L1988.33 2450.67L1987.67 2450.33M2011.67 2450.33L2012.33 2450.67L2011.67 2450.33M2117 2450L2118 2451L2117 2450M2140 2450L2141 2451L2140 2450M2193 2450L2194 2451L2193 2450M2228.67 2450.33L2229.33 2450.67L2228.67 2450.33M2268.67 2450.33L2269.33 2450.67L2268.67 2450.33M2304 2450L2305 2451L2304 2450M2325 2450L2326 2451L2325 2450M852 2451L852 2452L857 2452L852 2451z"/>
<path style="fill:#f5b2fe; stroke:none;" d="M857 2451L858 2452L857 2451z"/>
<path style="fill:#b2b2b2; stroke:none;" d="M873 2451L873 2452L877 2452L873 2451z"/>
<path style="fill:#f5b2fe; stroke:none;" d="M904 2451L905 2452L904 2451z"/>
<path style="fill:#b2b2b2; stroke:none;" d="M1110 2451L1111 2452L1110 2451M1132.67 2451.33L1133.33 2451.67L1132.67 2451.33M1291.67 2451.33L1292.33 2451.67L1291.67 2451.33M1311 2451L1311 2452L1313 2466L1314 2466L1314 2451L1311 2451M1474 2451L1475 2452L1474 2451M1500.67 2451.33L1501.33 2451.67L1500.67 2451.33M1530 2451L1530 2452L1533 2452L1530 2451M1571 2451L1572 2452L1571 2451M1598 2451L1598 2452L1601 2452L1598 2451z"/>
<path style="fill:#f5b2fe; stroke:none;" d="M1618 2451L1619 2452L1618 2451z"/>
<path style="fill:#b2b2b2; stroke:none;" d="M1619 2451L1619 2452L1622 2452L1619 2451M1854 2451L1855 2452L1854 2451M1989.67 2451.33L1990.33 2451.67L1989.67 2451.33M2009.67 2451.33L2010.33 2451.67L2009.67 2451.33M2118 2451L2119 2452L2118 2451M2141 2451L2142 2452L2141 2451M2168 2451L2169 2452L2168 2451M2195 2451L2196 2452L2195 2451z"/>
<path style="fill:#f5b2fe; stroke:none;" d="M2196 2451L2197 2452L2196 2451z"/>
<path style="fill:#b2b2b2; stroke:none;" d="M2224 2451L2224 2452L2227 2452L2224 2451M2271.67 2451.33L2272.33 2451.67L2271.67 2451.33M2302.67 2451.33L2303.33 2451.67L2302.67 2451.33M859 2452L859 2453L872 2453L859 2452M903 2452L904 2453L903 2452M1111.67 2452.33L1112.33 2452.67L1111.67 2452.33M1130.67 2452.33L1131.33 2452.67L1130.67 2452.33M1268 2452L1269 2453L1268 2452M1293.67 2452.33L1294.33 2452.67L1293.67 2452.33M1306 2452L1306 2453L1310 2453L1306 2452M1475 2452L1476 2453L1475 2452M1503 2452L1503 2453L1506 2453L1503 2452M1525 2452L1525 2453L1529 2453L1525 2452M1601 2452L1601 2453L1607 2453L1601 2452z"/>
<path style="fill:#f5b2fe; stroke:none;" d="M1607 2452L1607 2453L1610 2453L1607 2452z"/>
<path style="fill:#b2b2b2; stroke:none;" d="M1610 2452L1610 2453L1618 2453L1610 2452M1991 2452L1991 2453L1994 2453L1991 2452M2005 2452L2005 2453L2009 2453L2005 2452M2119 2452L2120 2453L2119 2452M2169 2452L2170 2453L2169 2452M2197 2452L2197 2453L2200 2453L2197 2452M2219 2452L2219 2453L2223 2453L2219 2452M2274 2452L2274 2453L2277 2453L2274 2452z"/>
<path style="fill:#f5b2fe; stroke:none;" d="M2277 2452L2278 2453L2277 2452z"/>
<path style="fill:#b2b2b2; stroke:none;" d="M2300.67 2452.33L2301.33 2452.67L2300.67 2452.33M2324.33 2452.67L2324.67 2453.33L2324.33 2452.67M1087 2453L1088 2454L1087 2453M1113 2453L1113 2454L1116 2454L1113 2453z"/>
<path style="fill:#f5b2fe; stroke:none;" d="M1116 2453L1117 2454L1116 2453M1125 2453L1126 2454L1125 2453z"/>
<path style="fill:#b2b2b2; stroke:none;" d="M1126 2453L1126 2454L1129 2454L1126 2453z"/>
<path style="fill:#f5b2fe; stroke:none;" d="M1268 2453L1269 2454L1268 2453z"/>
<path style="fill:#b2b2b2; stroke:none;" d="M1296 2453L1296 2454L1305 2454L1296 2453M1507 2453L1507 2454L1524 2454L1507 2453M1572 2453L1573 2454L1572 2453M1882.33 2453.67L1882.67 2454.33L1882.33 2453.67M1964 2453L1965 2454L1964 2453M1995 2453L1995 2454L2004 2454L1995 2453z"/>
<path style="fill:#f5b2fe; stroke:none;" d="M2119 2453L2120 2454L2119 2453z"/>
<path style="fill:#b2b2b2; stroke:none;" d="M2142 2453L2143 2454L2142 2453M2201 2453L2201 2454L2218 2454L2201 2453M2278 2453L2278 2454L2283 2454L2278 2453z"/>
<path style="fill:#f5b2fe; stroke:none;" d="M2283 2453L2284 2454L2283 2453M2295 2453L2296 2454L2295 2453z"/>
<path style="fill:#b2b2b2; stroke:none;" d="M2296 2453L2296 2454L2299 2454L2296 2453M902 2454L903 2455L902 2454M1118 2454L1118 2455L1124 2455L1118 2454M1145 2454L1146 2455L1145 2454M1476 2454L1477 2455L1476 2454M1573 2454L1574 2455L1573 2454M1855 2454L1856 2455L1855 2454M2120 2454L2121 2455L2120 2454M2143 2454L2144 2455L2143 2454M2170 2454L2171 2455L2170 2454M2286 2454L2286 2455L2294 2455L2286 2454M2323.33 2454.67L2323.67 2455.33L2323.33 2454.67M901 2455L902 2456L901 2455M1088 2455L1089 2456L1088 2455M1144 2455L1145 2456L1144 2455M1269 2455L1270 2456L1269 2455M1477 2455L1478 2456L1477 2455M1574 2455L1575 2456L1574 2455M1965 2455L1966 2456L1965 2455M2024 2455L2025 2456L2024 2455M2121 2455L2122 2456L2121 2455M2144 2455L2145 2456L2144 2455M2171 2455L2172 2456L2171 2455M900 2456L901 2457L900 2456M1143 2456L1144 2457L1143 2456M1478 2456L1479 2457L1478 2456M1881 2456L1882 2457L1881 2456M2023 2456L2024 2457L2023 2456M2172 2456L2173 2457L2172 2456M2322 2456L2323 2457L2322 2456M899 2457L900 2458L899 2457M1089 2457L1090 2458L1089 2457M1142 2457L1143 2458L1142 2457M1146 2457L1147 2458L1146 2457M1270 2457L1271 2458L1270 2457M1479 2457L1480 2458L1479 2457M1575 2457L1576 2458L1575 2457M1856 2457L1857 2458L1856 2457z"/>
<path style="fill:#f5b2fe; stroke:none;" d="M1881 2457L1882 2458L1881 2457z"/>
<path style="fill:#b2b2b2; stroke:none;" d="M1966 2457L1967 2458L1966 2457M2022 2457L2023 2458L2022 2457M2025 2457L2025 2460L2026 2460L2025 2457z"/>
<path style="fill:#f5b2fe; stroke:none;" d="M2122 2457L2123 2458L2122 2457z"/>
<path style="fill:#b2b2b2; stroke:none;" d="M2145 2457L2146 2458L2145 2457M2173 2457L2174 2458L2173 2457M2321 2457L2322 2458L2321 2457M898 2458L899 2459L898 2458M1141 2458L1142 2459L1141 2458M1480 2458L1481 2459L1480 2458M1576 2458L1577 2459L1576 2458M1967 2458L1968 2459L1967 2458M2021 2458L2022 2459L2021 2458M2123 2458L2124 2459L2123 2458M2146 2458L2147 2459L2146 2458M2174 2458L2175 2459L2174 2458M897 2459L898 2460L897 2459z"/>
<path style="fill:#f5b2fe; stroke:none;" d="M1090 2459L1091 2460L1090 2459z"/>
<path style="fill:#b2b2b2; stroke:none;" d="M1140 2459L1141 2460L1140 2459M1271 2459L1272 2460L1271 2459M1481 2459L1482 2460L1481 2459M1577 2459L1578 2460L1577 2459M1857.33 2459.67L1857.67 2460.33L1857.33 2459.67M1880 2459L1881 2460L1880 2459M1968 2459L1969 2460L1968 2459M2020 2459L2021 2460L2020 2459M2124 2459L2125 2460L2124 2459M2147 2459L2148 2460L2147 2459M2175 2459L2176 2460L2175 2459M2320 2459L2321 2460L2320 2459M896 2460L897 2461L896 2460M1091 2460L1092 2461L1091 2460M1139 2460L1140 2461L1139 2460M1147 2460L1148 2461L1147 2460M1272 2460L1273 2461L1272 2460M1482.67 2460.33L1483.33 2460.67L1482.67 2460.33M1578.67 2460.33L1579.33 2460.67L1578.67 2460.33M1969 2460L1970 2461L1969 2460M2019 2460L2020 2461L2019 2460M2176.67 2460.33L2177.33 2460.67L2176.67 2460.33M2319 2460L2320 2461L2319 2460M894 2461L895 2462L894 2461M1092 2461L1093 2462L1092 2461M1138 2461L1139 2462L1138 2461M1273 2461L1274 2462L1273 2461M1484 2461L1485 2462L1484 2461M1580 2461L1581 2462L1580 2461M1970 2461L1971 2462L1970 2461M2018 2461L2019 2462L2018 2461M2125 2461L2126 2462L2125 2461M2148 2461L2149 2462L2148 2461M2178 2461L2179 2462L2178 2461M2317 2461L2318 2462L2317 2461z"/>
<path style="fill:#f5b2fe; stroke:none;" d="M2318 2461L2319 2462L2318 2461z"/>
<path style="fill:#b2b2b2; stroke:none;" d="M892.667 2462.33L893.333 2462.67L892.667 2462.33M1093 2462L1094 2463L1093 2462M1137 2462L1138 2463L1137 2462M1274 2462L1275 2463L1274 2462M1485.67 2462.33L1486.33 2462.67L1485.67 2462.33M1581 2462L1582 2463L1581 2462M1858.33 2462.67L1858.67 2463.33L1858.33 2462.67M1879 2462L1880 2463L1879 2462M1971 2462L1972 2463L1971 2462M2017 2462L2018 2463L2017 2462M2026.33 2462.67L2026.67 2463.33L2026.33 2462.67M2126 2462L2127 2463L2126 2462M2149 2462L2150 2463L2149 2462M2179.67 2462.33L2180.33 2462.67L2179.67 2462.33M2316 2462L2317 2463L2316 2462M831.667 2463.33L832.333 2463.67L831.667 2463.33M891 2463L892 2464L891 2463M1094 2463L1095 2464L1094 2463M1136 2463L1137 2464L1136 2463M1148.33 2463.67L1148.67 2464.33L1148.33 2463.67M1275 2463L1276 2464L1275 2463M1487 2463L1488 2464L1487 2463M1542.67 2463.33L1543.33 2463.67L1542.67 2463.33z"/>
<path style="fill:#f5b2fe; stroke:none;" d="M1582 2463L1583 2464L1582 2463z"/>
<path style="fill:#b2b2b2; stroke:none;" d="M1583 2463L1584 2464L1583 2463M1972 2463L1973 2464L1972 2463M2015.67 2463.33L2016.33 2463.67L2015.67 2463.33M2127 2463L2128 2464L2127 2463M2150 2463L2151 2464L2150 2463M2181 2463L2182 2464L2181 2463M2236.67 2463.33L2237.33 2463.67L2236.67 2463.33M2314.67 2463.33L2315.33 2463.67L2314.67 2463.33M833.667 2464.33L834.333 2464.67L833.667 2464.33M889 2464L890 2465L889 2464z"/>
<path style="fill:#f5b2fe; stroke:none;" d="M890 2464L891 2465L890 2464M1095 2464L1096 2465L1095 2464z"/>
<path style="fill:#b2b2b2; stroke:none;" d="M1096 2464L1097 2465L1096 2464M1134.67 2464.33L1135.33 2464.67L1134.67 2464.33M1276 2464L1277 2465L1276 2464z"/>
<path style="fill:#f5b2fe; stroke:none;" d="M1488 2464L1489 2465L1488 2464z"/>
<path style="fill:#b2b2b2; stroke:none;" d="M1489 2464L1490 2465L1489 2464M1540.67 2464.33L1541.33 2464.67L1540.67 2464.33M1584.67 2464.33L1585.33 2464.67L1584.67 2464.33M1631.67 2464.33L1632.33 2464.67L1631.67 2464.33M1878.33 2464.67L1878.67 2465.33L1878.33 2464.67M1973.67 2464.33L1974.33 2464.67L1973.67 2464.33M2014 2464L2015 2465L2014 2464z"/>
<path style="fill:#f5b2fe; stroke:none;" d="M2182 2464L2183 2465L2182 2464z"/>
<path style="fill:#b2b2b2; stroke:none;" d="M2183 2464L2184 2465L2183 2464M2234.67 2464.33L2235.33 2464.67L2234.67 2464.33M2260.67 2464.33L2261.33 2464.67L2260.67 2464.33M2312.67 2464.33L2313.33 2464.67L2312.67 2464.33M835 2465L835 2466L838 2466L835 2465M886.667 2465.33L887.333 2465.67L886.667 2465.33M1097.67 2465.33L1098.33 2465.67L1097.67 2465.33M1132.67 2465.33L1133.33 2465.67L1132.67 2465.33M1277.67 2465.33L1278.33 2465.67L1277.67 2465.33z"/>
<path style="fill:#f5b2fe; stroke:none;" d="M1490 2465L1491 2466L1490 2465z"/>
<path style="fill:#b2b2b2; stroke:none;" d="M1491.67 2465.33L1492.33 2465.67L1491.67 2465.33M1537 2465L1537 2466L1540 2466L1537 2465M1586.67 2465.33L1587.33 2465.67L1586.67 2465.33M1629.67 2465.33L1630.33 2465.67L1629.67 2465.33M1859.33 2465.67L1859.67 2466.33L1859.33 2465.67M1975.67 2465.33L1976.33 2465.67L1975.67 2465.33M2012 2465L2013 2466L2012 2465z"/>
<path style="fill:#f5b2fe; stroke:none;" d="M2013 2465L2014 2466L2013 2465z"/>
<path style="fill:#b2b2b2; stroke:none;" d="M2128 2465L2129 2466L2128 2465M2151 2465L2152 2466L2151 2465z"/>
<path style="fill:#f5b2fe; stroke:none;" d="M2184 2465L2185 2466L2184 2465z"/>
<path style="fill:#b2b2b2; stroke:none;" d="M2185.67 2465.33L2186.33 2465.67L2185.67 2465.33M2231 2465L2231 2466L2234 2466L2231 2465M2262 2465L2262 2466L2265 2466L2262 2465M2310.67 2465.33L2311.33 2465.67L2310.67 2465.33M838 2466L838 2467L842 2467L838 2466M883 2466L883 2467L886 2467L883 2466M1099.67 2466.33L1100.33 2466.67L1099.67 2466.33M1130.67 2466.33L1131.33 2466.67L1130.67 2466.33M1149 2466L1150 2467L1149 2466M1279.67 2466.33L1280.33 2466.67L1279.67 2466.33M1311.67 2466.33L1312.33 2466.67L1311.67 2466.33M1493 2466L1493 2467L1496 2467L1493 2466M1534 2466L1534 2467L1537 2467L1534 2466M1588 2466L1588 2467L1591 2467L1588 2466M1626.67 2466.33L1627.33 2466.67L1626.67 2466.33z"/>
<path style="fill:#f5b2fe; stroke:none;" d="M1628 2466L1629 2467L1628 2466z"/>
<path style="fill:#b2b2b2; stroke:none;" d="M1977.67 2466.33L1978.33 2466.67L1977.67 2466.33M2009.67 2466.33L2010.33 2466.67L2009.67 2466.33z"/>
<path style="fill:#f5b2fe; stroke:none;" d="M2011 2466L2012 2467L2011 2466z"/>
<path style="fill:#b2b2b2; stroke:none;" d="M2027 2466L2028 2467L2027 2466M2129 2466L2130 2467L2129 2466M2152 2466L2130 2467L2130 2468L2152 2466M2187 2466L2187 2467L2190 2467L2187 2466M2228 2466L2228 2467L2231 2467L2228 2466M2265 2466L2265 2467L2268 2467L2265 2466M2307 2466L2307 2467L2310 2467L2307 2466M842 2467L842 2468L846 2468L842 2467M879 2467L879 2468L883 2468L879 2467z"/>
<path style="fill:#f5b2fe; stroke:none;" d="M948 2467L949 2468L948 2467M1006 2467L1007 2468L1006 2467z"/>
<path style="fill:#b2b2b2; stroke:none;" d="M1101 2467L1101 2468L1104 2468L1101 2467M1127 2467L1127 2468L1130 2468L1127 2467M1281 2467L1281 2468L1284 2468L1281 2467M1308 2467L1308 2468L1311 2468L1308 2467z"/>
<path style="fill:#f5b2fe; stroke:none;" d="M1400 2467L1401 2468L1400 2467z"/>
<path style="fill:#b2b2b2; stroke:none;" d="M1496 2467L1496 2468L1499 2468L1496 2467M1530 2467L1530 2468L1533 2468L1530 2467z"/>
<path style="fill:#f5b2fe; stroke:none;" d="M1533 2467L1534 2468L1533 2467z"/>
<path style="fill:#b2b2b2; stroke:none;" d="M1591 2467L1591 2468L1594 2468L1591 2467M1622 2467L1622 2468L1626 2468L1622 2467M1654 2467L1654 2468L1674 2468L1654 2467M1807 2467L1807 2468L1825 2468L1807 2467M1860 2467L1860 2468L1878 2468L1860 2467M1914 2467L1914 2468L1933 2468L1914 2467M1979 2467L1979 2468L1982 2468L1979 2467M2006 2467L2006 2468L2009 2468L2006 2467M2028 2467L2028 2468L2043 2468L2028 2467M2070 2467L2070 2468L2089 2468L2070 2467M2190 2467L2190 2468L2193 2468L2190 2467M2224 2467L2224 2468L2227 2468L2224 2467z"/>
<path style="fill:#f5b2fe; stroke:none;" d="M2227 2467L2228 2468L2227 2467z"/>
<path style="fill:#b2b2b2; stroke:none;" d="M2268 2467L2268 2468L2272 2468L2268 2467M2303 2467L2303 2468L2307 2468L2303 2467M2348 2467L2348 2468L2368 2468L2348 2467z"/>
<path style="fill:#f5b2fe; stroke:none;" d="M846 2468L847 2469L846 2468z"/>
<path style="fill:#b2b2b2; stroke:none;" d="M847 2468L847 2469L872 2470L847 2468M873 2468L873 2469L879 2469L873 2468M1104 2468L1104 2469L1108 2469L1104 2468M1122 2468L1122 2469L1126 2469L1122 2468z"/>
<path style="fill:#f5b2fe; stroke:none;" d="M1126 2468L1127 2469L1126 2468z"/>
<path style="fill:#b2b2b2; stroke:none;" d="M1284 2468L1284 2469L1288 2469L1284 2468M1302 2468L1302 2469L1307 2469L1302 2468z"/>
<path style="fill:#f5b2fe; stroke:none;" d="M1499 2468L1500 2469L1499 2468z"/>
<path style="fill:#b2b2b2; stroke:none;" d="M1500 2468L1500 2469L1505 2469L1500 2468M1523 2468L1523 2469L1529 2469L1523 2468z"/>
<path style="fill:#f5b2fe; stroke:none;" d="M1594 2468L1595 2469L1594 2468z"/>
<path style="fill:#b2b2b2; stroke:none;" d="M1595 2468L1595 2469L1600 2469L1595 2468M1600 2469L1600 2470L1622 2469L1600 2469z"/>
<path style="fill:#f5b2fe; stroke:none;" d="M1982 2468L1983 2469L1982 2468z"/>
<path style="fill:#b2b2b2; stroke:none;" d="M1983 2468L1983 2469L2001 2470L1983 2468M2001 2468L2001 2469L2006 2469L2001 2468z"/>
<path style="fill:#f5b2fe; stroke:none;" d="M2193 2468L2194 2469L2193 2468z"/>
<path style="fill:#b2b2b2; stroke:none;" d="M2194 2468L2194 2469L2199 2469L2194 2468M2217 2468L2217 2469L2223 2469L2217 2468z"/>
<path style="fill:#f5b2fe; stroke:none;" d="M2272 2468L2273 2469L2272 2468z"/>
<path style="fill:#b2b2b2; stroke:none;" d="M2273 2468L2273 2469L2279 2469L2273 2468M2279 2469L2279 2470L2303 2469L2279 2469z"/>
<path style="fill:#f5b2fe; stroke:none;" d="M853 2469L854 2470L853 2469M872 2469L873 2470L872 2469z"/>
<path style="fill:#b2b2b2; stroke:none;" d="M1108 2469L1108 2470L1121 2470L1108 2469z"/>
<path style="fill:#f5b2fe; stroke:none;" d="M1121 2469L1122 2470L1121 2469z"/>
<path style="fill:#b2b2b2; stroke:none;" d="M1288 2469L1288 2470L1301 2470L1288 2469z"/>
<path style="fill:#f5b2fe; stroke:none;" d="M1301 2469L1302 2470L1301 2469z"/>
<path style="fill:#b2b2b2; stroke:none;" d="M1505 2469L1505 2470L1522 2470L1505 2469z"/>
<path style="fill:#f5b2fe; stroke:none;" d="M1522 2469L1523 2470L1522 2469M1616 2469L1617 2470L1616 2469M1987 2469L1988 2470L1987 2469z"/>
<path style="fill:#b2b2b2; stroke:none;" d="M2199 2469L2199 2470L2216 2470L2199 2469z"/>
<path style="fill:#f5b2fe; stroke:none;" d="M2216 2469L2217 2470L2216 2469M2297 2469L2298 2470L2297 2469z"/>
</svg>
