<?xml version="1.0" standalone="yes"?>
<svg xmlns="http://www.w3.org/2000/svg" width="2560" height="901">
<path style="fill:#010101; stroke:none;" d="M0 0L0 860L1 860L20 775L40 775C38.7019 790.893 32.9896 807.528 29.1265 823C25.7306 836.601 17.9829 854.98 21.7647 869C27.2766 889.434 58.3496 884.885 69.8156 872.907C85.7561 856.253 87.2389 823.551 92.6265 802C94.1721 795.818 94.8903 779.779 100.43 776.028C104.632 773.182 114.077 775 119 775C117.501 786.133 113.858 797.041 111.424 808C103.951 841.648 98.4698 893.728 56 900L56 901L219 901C201.543 870.654 168.914 847.24 155 815L154 815L139.884 875L133.436 897.397L116 899L125.626 857L146 771L148 771C151.738 779.388 159.136 786.786 164.79 794C180.692 814.287 201.948 835.638 213 859L214 859L228.127 799L234.564 776.603L252 775L243.873 812L223 901L1032 901L1015 826L1014 826L991.424 878L980.787 897.972L964 899C976.336 853.896 1009.06 814.935 1022 770L1023 770L1042 862L1043 862L1081.72 805L1105 770L1106 770L1104 899L1085 899L1088 826L1087 826L1035 901L1311 901L1247 815L1246 815L1227 899L1208 899L1238 771C1249.32 780.214 1258.03 795.397 1266.88 807C1279.53 823.573 1296.13 840.023 1305 859L1306 859L1320.12 800L1326.73 776.603L1345 775L1328.63 843L1315 901L1445 901L1445 900C1436.53 897.966 1420.37 884.918 1427.03 874.39C1429.88 869.883 1439.18 867.64 1444 866C1444.93 886.315 1471.12 887.218 1481.36 872.996C1487.89 863.921 1484.75 854.304 1476 848.36C1462.89 839.459 1442.2 831.287 1444.17 812C1446.85 785.872 1473.93 768.32 1499 773.669C1505.6 775.077 1522.88 783.307 1517.93 792.787C1515.44 797.551 1505.71 800.043 1501 802C1495.36 783.04 1463.46 791.147 1466.62 810C1469.07 824.572 1491.7 829.297 1500.7 839.09C1520.67 860.836 1493.73 894.601 1471 900L1471 901L1719 901L1696.88 871L1655 816L1645.12 856L1635 899L1616 899L1634.88 820L1646 771L1664.42 793L1698.58 837L1715 858L1734 775L1753 775L1742.65 819L1723 901L2250 901L2250 900C2223.96 896.1 2210.34 868.209 2214.61 844C2220.12 812.862 2242.56 785.667 2273 776.029C2286.83 771.65 2303.52 771.087 2317 776.873C2321.24 778.692 2327.95 781.423 2329.79 786.04C2331.87 791.279 2326.49 800.392 2326 806C2316.79 799.705 2308.68 792.947 2297 792.09C2272.55 790.297 2249.76 804.033 2240.45 827C2226.8 860.679 2247.59 891.332 2285 879.961C2294.18 877.172 2302.23 872.523 2310 867C2308.4 886.626 2300.06 897.297 2280 900L2280 901L2560 901L2560 0L2264 0L2187 0L2159.73 1.02777L2155.12 14L2146.29 46L2111.12 173L2015.85 517L1987.58 619L1974 670L1839 670L1854.42 615L1890.42 485L1975.58 178L2025 0L0 0z"/>
<path style="fill:#67696d; stroke:none;" d="M1839 670L1974 670L2015.58 519L2115.15 159L2159 0L2061 0C2052.79 0 2032.25 -3.75024 2025.51 1.02777C2022.26 3.33344 2021.57 10.387 2020.63 14C2017.76 25.0345 2014.63 36.0145 2011.58 47C1999.62 89.9869 1987.51 132.934 1975.85 176C1931.19 340.897 1885.32 505.561 1839 670z"/>
<path style="fill:#e8671d; stroke:none;" d="M2270 1C2254.75 48.695 2242.99 97.7549 2229.58 146L2146.58 445C2133.14 493.327 2120 541.75 2106.29 590C2098.82 616.293 2086.23 645.772 2084 673C2094.63 665.513 2103.49 654.944 2113 646.089C2131.46 628.893 2149.54 611.286 2168 594.089C2228.52 537.713 2288.79 480.771 2348 423.015C2369.6 401.941 2392.4 382.059 2414 360.985C2420.2 354.94 2435.19 345.439 2437.58 337C2439.2 331.287 2430.78 320.059 2428.25 315C2417.93 294.367 2408.39 273.061 2397 253C2364.39 195.547 2337.79 134.079 2308.25 75L2283.25 25C2279.4 17.3005 2276.15 7.0827 2270 1z"/>
<path style="fill:#27813b; stroke:none;" d="M2388 1C2379.61 37.5848 2368.1 73.8807 2357.86 110C2354.59 121.521 2344.45 142.251 2347.64 154C2351.62 168.62 2361.98 183.446 2368.75 197C2384.12 227.736 2399.68 258.378 2415.24 289C2420.99 300.295 2426.58 311.667 2432.25 323C2434 326.502 2438.82 332.839 2437.58 336.911C2436.15 341.616 2428.43 346.574 2425 350C2413.32 361.658 2400.68 372.342 2389 384C2343.17 429.738 2290.73 470.2 2247.11 518.015C2237.71 528.316 2236.04 549.797 2232.29 563C2221.98 599.312 2209.65 636.044 2202 673C2215.33 664.661 2226.76 650.981 2238 640.015C2256.69 621.782 2275.89 603.89 2295 586.089C2354.26 530.89 2414.69 476.216 2472 419C2492.13 398.906 2513.19 379.478 2534 360.089C2539.57 354.9 2555.75 344.593 2557.01 336.911C2558.02 330.738 2549.48 319.457 2546.75 314L2517.25 255C2488.04 196.595 2458.45 138.41 2429.25 80L2403.25 28C2398.97 19.453 2394.8 7.72601 2388 1z"/>
<path style="fill:#67696d; stroke:none;" d="M1039 2L941 2C932.95 2 912.079 -1.76398 905.563 3.02777C899.419 7.54596 897.593 27.7441 895.576 35L870.576 125C842.403 226.326 815.009 327.912 786 429C778.565 454.907 771.162 480.917 764.371 507C762.243 515.175 760.471 533.522 754.297 539.397C748.784 544.643 727.426 541 720 541L620 541L223 541L260.576 405L334.424 139L359.424 49L372 2L272 2L247 2C244.216 2.00128 240.037 1.31702 237.934 3.60339C230.947 11.2032 229.414 32.0515 226.579 42C217.002 75.5963 207.934 109.342 198.576 143C165.493 261.988 133.364 381.293 99.2909 500C90.701 529.926 82.881 560.073 74.2909 590C68.1356 611.444 61.9931 634.116 76.0432 654C95.323 681.285 139.127 673 168 673L419 673L714 673L785 673C803.961 673 822.164 673.791 839 663.536C860.933 650.177 865.924 626.995 872.151 604C881.737 568.606 891.592 533.247 901.709 498C933.583 386.955 963.477 275.307 994.424 164L1024.42 56C1029.31 38.4134 1036.56 20.087 1039 2M1092 134L1758 134C1745.64 166.293 1739.25 201.751 1729.71 235C1727.14 243.939 1725.44 265.17 1718.49 271.397C1715.68 273.913 1710.47 273 1707 273L1677 273L1558 273C1437.33 273 1316.67 273.194 1196 273C1162.42 272.946 1128.66 272 1095 272C1084.31 272 1063.93 268.017 1054.3 272.603C1049.03 275.113 1047.29 291.669 1045.85 297C1039.25 321.37 1032.5 345.719 1025.58 370C1006.15 438.166 987.378 506.583 968.849 575C960.173 607.032 946.827 640.194 942 673L1040 673C1048.21 673 1068.75 676.75 1075.49 671.972C1079.49 669.133 1080.18 659.46 1081.42 655C1085.96 638.673 1090.33 622.288 1095 606C1107.21 563.451 1118.57 520.648 1130.42 478C1136.9 454.716 1147.9 429.064 1150 405L1497 405L1703 405C1746.33 405 1786.3 407.326 1817.83 372C1834.83 352.947 1839.55 325.964 1845.88 302C1855.78 264.55 1866.99 227.45 1876.88 190C1887.89 148.341 1902.22 107.113 1911.34 65C1915.42 46.1367 1912.47 24.0718 1896 11.7608C1878.92 -1.0069 1857.07 2 1837 2L1715 2L1296 2L1177 2L1144 2C1139.75 2 1133.2 0.782227 1129.28 2.60339C1122.92 5.55243 1120.58 27.4971 1118.71 34C1112.7 54.9428 1107.24 76.0423 1101.29 97C1097.94 108.8 1092.54 121.71 1092 134z"/>
<path style="fill:#ff0101; stroke:none;" d="M2269 2L2270 3L2269 2M2264 20L2265 21L2264 20M2259 38L2260 39L2259 38M2254 56L2255 57L2254 56M2249 74L2250 75L2249 74M2244 92L2245 93L2244 92M2328 115L2329 116L2328 115M2329 117L2330 118L2329 117M2330 119L2331 120L2330 119M2331 121L2332 122L2331 121M2332 123L2333 124L2332 123M2333 125L2334 126L2333 125M2334 127L2335 128L2334 127z"/>
<path style="fill:#67696d; stroke:none;" d="M2347 154L2348 155L2347 154M2348 156L2349 157L2348 156M2349 158L2350 159L2349 158M2350 160L2351 161L2350 160M2351 162L2352 163L2351 162M2352 164L2353 165L2352 164M2353 166L2354 167L2353 166M2354 168L2355 169L2354 168M2355 170L2356 171L2355 170M2356 172L2357 173L2356 172M2357 174L2358 175L2357 174M2358 176L2359 177L2358 176M2359 178L2360 179L2359 178M2360 180L2361 181L2360 180M2361 182L2362 183L2361 182M2362 184L2363 185L2362 184M2363 186L2364 187L2363 186M2364 188L2365 189L2364 188M2365 190L2366 191L2365 190M2366 192L2367 193L2366 192M2367 194L2368 195L2367 194M2368 196L2369 197L2368 196M2369 198L2370 199L2369 198M2370 200L2371 201L2370 200M2371 202L2372 203L2371 202M2372 204L2373 205L2372 204M2373 206L2374 207L2373 206M2374 208L2375 209L2374 208M2375 210L2376 211L2375 210M2376 212L2377 213L2376 212M2377 214L2378 215L2377 214M2378 216L2379 217L2378 216M2379 218L2380 219L2379 218M2380 220L2381 221L2380 220M2381 222L2382 223L2381 222M2382 224L2383 225L2382 224M2383 226L2384 227L2383 226M2384 228L2385 229L2384 228M2385 230L2386 231L2385 230M2386 232L2387 233L2386 232M2387 234L2388 235L2387 234M2388 236L2389 237L2388 236M2389 238L2390 239L2389 238M2390 240L2391 241L2390 240M2391 242L2392 243L2391 242M2392 244L2393 245L2392 244M2393 246L2394 247L2393 246M2394 248L2395 249L2394 248M2395 250L2396 251L2395 250M2396 252L2397 253L2396 252M2412 283L2413 284L2412 283M2413 285L2414 286L2413 285M2414 287L2415 288L2414 287M2415 289L2416 290L2415 289M2416 291L2417 292L2416 291M2417 293L2418 294L2417 293M2418 295L2419 296L2418 295M2419 297L2420 298L2419 297M2420 299L2421 300L2420 299M2421 301L2422 302L2421 301M2422 303L2423 304L2422 303M2423 305L2424 306L2423 305M2424 307L2425 308L2424 307M2425 309L2426 310L2425 309M2426 311L2427 312L2426 311M2427 313L2428 314L2427 313M2428 315L2429 316L2428 315M2429 317L2430 318L2429 317z"/>
<path style="fill:#ff0101; stroke:none;" d="M2181 319L2182 320L2181 319z"/>
<path style="fill:#67696d; stroke:none;" d="M2430 319L2431 320L2430 319M2431 321L2432 322L2431 321M2432 323L2433 324L2432 323M2433 325L2434 326L2433 325M2434 327L2435 328L2434 327M2435 329L2436 330L2435 329M2436 331L2437 332L2436 331M2437 333L2438 334L2437 333M2438 335L2439 336L2438 335z"/>
<path style="fill:#ff0101; stroke:none;" d="M2176 337L2177 338L2176 337z"/>
<path style="fill:#67696d; stroke:none;" d="M2438 337L2439 338L2438 337M2437 338L2438 339L2437 338M2436 339L2437 340L2436 339M2425 349L2426 350L2425 349M2424 350L2425 351L2424 350M2423 351L2424 352L2423 351M2422 352L2423 353L2422 352M2421 353L2422 354L2421 353M2420 354L2421 355L2420 354z"/>
<path style="fill:#ff0101; stroke:none;" d="M2171 355L2172 356L2171 355z"/>
<path style="fill:#67696d; stroke:none;" d="M2419 355L2420 356L2419 355M2418 356L2419 357L2418 356M2417 357L2418 358L2417 357M2407 366L2408 367L2407 366M2406 367L2407 368L2406 367M2405 368L2406 369L2405 368M2404 369L2405 370L2404 369M2403 370L2404 371L2403 370M2402 371L2403 372L2402 371M2401 372L2402 373L2401 372z"/>
<path style="fill:#ff0101; stroke:none;" d="M2166 373L2167 374L2166 373z"/>
<path style="fill:#67696d; stroke:none;" d="M2400 373L2401 374L2400 373M2399 374L2400 375L2399 374M2389 383L2390 384L2389 383M2388 384L2389 385L2388 384M2387 385L2388 386L2387 385M2386 386L2387 387L2386 386M2385 387L2386 388L2385 387M2384 388L2385 389L2384 388M2383 389L2384 390L2383 389M2382 390L2383 391L2382 390z"/>
<path style="fill:#ff0101; stroke:none;" d="M2161 391L2162 392L2161 391z"/>
<path style="fill:#67696d; stroke:none;" d="M2381 391L2382 392L2381 391M2370 401L2371 402L2370 401M2369 402L2370 403L2369 402M2368 403L2369 404L2368 403M2367 404L2368 405L2367 404M2366 405L2367 406L2366 405M2365 406L2366 407L2365 406M2364 407L2365 408L2364 407M2363 408L2364 409L2363 408z"/>
<path style="fill:#ff0101; stroke:none;" d="M2156 409L2157 410L2156 409z"/>
<path style="fill:#67696d; stroke:none;" d="M2352 418L2353 419L2352 418M2351 419L2352 420L2351 419M2350 420L2351 421L2350 420M2349 421L2350 422L2349 421M2348 422L2349 423L2348 422M2347 423L2348 424L2347 423M2346 424L2347 425L2346 424M2345 425L2346 426L2345 425z"/>
<path style="fill:#ff0101; stroke:none;" d="M2151 427L2152 428L2151 427z"/>
<path style="fill:#67696d; stroke:none;" d="M2334 435L2335 436L2334 435M2333 436L2334 437L2333 436M2332 437L2333 438L2332 437M2331 438L2332 439L2331 438M2330 439L2331 440L2330 439M2329 440L2330 441L2329 440M2328 441L2329 442L2328 441M2327 442L2328 443L2327 442M2326 443L2327 444L2326 443z"/>
<path style="fill:#ff0101; stroke:none;" d="M2146 445L2147 446L2146 445z"/>
<path style="fill:#67696d; stroke:none;" d="M2316 452L2317 453L2316 452M2315 453L2316 454L2315 453M2314 454L2315 455L2314 454M2313 455L2314 456L2313 455M2312 456L2313 457L2312 456M2311 457L2312 458L2311 457M2310 458L2311 459L2310 458M2309 459L2310 460L2309 459M2308 460L2309 461L2308 460M2297 470L2298 471L2297 470M2296 471L2297 472L2296 471M2295 472L2296 473L2295 472M2294 473L2295 474L2294 473M2293 474L2294 475L2293 474M2292 475L2293 476L2292 475M2291 476L2292 477L2291 476M2290 477L2291 478L2290 477M2279 487L2280 488L2279 487M2278 488L2279 489L2278 488M2277 489L2278 490L2277 489M2276 490L2277 491L2276 490M2275 491L2276 492L2275 491M2274 492L2275 493L2274 492M2273 493L2274 494L2273 493M2272 494L2273 495L2272 494M2261 504L2262 505L2261 504M2260 505L2261 506L2260 505M2259 506L2260 507L2259 506M2258 507L2259 508L2258 507M2257 508L2258 509L2257 508M2256 509L2257 510L2256 509M2255 510L2256 511L2255 510M2254 511L2255 512L2254 511M2253 512L2254 513L2253 512z"/>
<path style="fill:#ff0101; stroke:none;" d="M2188 574L2189 575L2188 574M2170 591L2171 592L2170 591M2115 643L2116 644L2115 643M2097 660L2098 661L2097 660z"/>
<path style="fill:#67696d; stroke:none;" d="M1022 770L981.691 858L964 899C968.831 899 977.414 900.653 981.61 897.972C986.485 894.857 989.184 884.149 991.424 879C998.695 862.288 1010.9 844.021 1014 826L1015 826C1017.38 844.747 1022.68 863.64 1027.13 882C1028.07 885.87 1028.73 897.84 1032.56 899.824C1037.27 902.267 1045.38 887.074 1047.58 884C1060.02 866.595 1080.51 846.504 1087 826L1088 826L1085 899L1104 899L1105 843L1106 770L1105 770C1084.92 799.759 1058.35 829.557 1043 862L1042 862L1028.88 796L1022 770M146 771L126.116 854L116 899L133.436 897.972L139.651 877L154 815L155 815C157.772 824.419 165.637 832.378 171.576 840C182.202 853.639 192.961 867.197 203.374 881C208.266 887.484 214.465 899.655 223 901L242.374 819L252 775L234.564 776.028L228.373 797L214 859L213 859L193.35 830L148 771L146 771M846 771C826.525 799.868 806.682 828.568 786.576 857C777.988 869.143 762.741 884.579 759 899L779.674 897.972L802.184 868.028L816 867L848 867C848.275 873.39 849.313 893.95 854.589 897.972C858.714 901.117 869.963 899 875 899L848 771L846 771M1238 771L1215.58 865L1208 899L1227 899L1246 815L1247 815C1250.69 825.093 1258.66 833.643 1265.21 842C1275.38 854.965 1285.45 868.004 1295.58 881C1300.55 887.382 1306.51 899.662 1315 901L1345 775L1326.73 776.028L1320.35 798L1306 859L1305 859C1301.44 847.764 1291.73 838.186 1284.65 829C1269.78 809.703 1254.22 790.778 1240 771L1238 771M1646 771L1616 899L1635 899L1655 816C1668.9 838.624 1686.93 858.98 1703.12 880C1706.37 884.218 1715.32 900.364 1721.03 900.364C1724.01 900.364 1724.52 896.131 1725 893.999C1726.71 886.298 1728.87 878.701 1730.58 871C1737.51 839.779 1750.4 806.84 1753 775L1734 775L1715 858C1696.54 840.111 1682 814.357 1666 794C1660.28 786.724 1654.44 775.117 1646 771M2170 771L2106.66 863L2083 899L2103.82 897.972L2126.32 868.028L2140 867L2172 867C2172.51 873.45 2173.56 893.859 2178.74 897.972C2182.71 901.126 2194.08 899 2199 899L2189.21 851L2172 771L2170 771M1444 866C1439.23 867.133 1429.98 869.428 1427.03 873.638C1421.23 881.903 1432.12 895.171 1439 898.457C1470.71 913.613 1513.03 884.303 1506.67 849C1504.05 834.476 1486.48 829.132 1476.01 821.561C1470.43 817.519 1464.84 811.333 1467.63 804C1473.54 788.461 1494.25 786.674 1501 802C1505.72 800.641 1515.25 797.98 1517.97 793.61C1522.04 787.053 1513.04 778.912 1508 776.378C1480.53 762.576 1442.67 784.669 1444.04 816C1444.8 833.318 1462.68 840.024 1475 848.36C1483.14 853.871 1487.88 861.853 1482.03 871C1472.36 886.116 1445.88 887.349 1444 866M2310 867C2293.43 875.208 2277.72 886.42 2258 881.073C2239.36 876.018 2232.75 856.222 2236.9 839C2242.44 815.995 2260.71 795.453 2285 792.289C2302.66 789.989 2311.33 799.281 2326 806C2326.83 800.348 2332.55 790.423 2329.93 785.093C2327.65 780.458 2320.53 777.786 2316 776.066C2301.94 770.727 2284.06 771.792 2270 776.695C2240.65 786.931 2218.31 814.088 2214.29 845C2211.77 864.347 2218.1 885.56 2236 895.485C2252.28 904.513 2289.34 905.589 2303.49 891.211C2308.25 886.374 2309.72 873.539 2310 867M20 775C16.7953 798.799 8.72267 822.583 3.34877 846C0.528724 858.288 -2.86917 872.877 2.52932 885C14.0888 910.958 63.6026 904.118 80.9992 888.815C102.356 870.027 105.58 835.313 111.424 809C113.909 797.812 118.065 786.441 119 775C114.224 775 103.623 772.998 99.7276 776.028C94.6203 780 93.9008 795.891 92.3735 802C86.9308 823.771 85.4662 856.37 68.9066 872.907C56.8142 884.982 27.4072 888.919 21.7647 868C18.2104 854.823 25.9242 836.826 29.1265 824C33.0225 808.396 39.2992 791.075 40 775L20 775M279 775L250 899C254.733 899 266.65 901.155 270.062 897.397C276.28 890.55 277.413 870.056 279.424 861C285.812 832.24 294.045 803.853 300 775L279 775M297 899L318 899L331 841L379 841L383 823L336 823C337.294 816.329 338.551 798.009 344.43 794.028C351.122 789.496 369.984 793 378 793C381.266 793 387.459 794.176 389.86 791.397C392.952 787.818 393.628 779.556 394 775L346 775C341.326 775 331.471 773.141 327.564 776.028C321.546 780.474 320.412 800.86 318.627 808C311.083 838.176 303.284 868.538 297 899M385 899L406 899L415.626 857L435 775C430.267 775 418.35 772.845 414.938 776.603C408.884 783.269 408.29 801.334 406.127 810C398.871 839.06 388.994 869.338 385 899M432 899L500 899L504 880L457 880L466 841L514 841L518 823L471 823C472.334 816.538 473.85 797.806 479.43 794.028C486.122 789.496 504.984 793 513 793C516.341 793 522.559 794.168 525.062 791.397C528.124 788.005 528.64 779.404 529 775L481 775C476.398 775 466.399 773.125 462.589 776.028C456.72 780.5 455.591 800.914 453.87 808C446.511 838.303 439.814 868.812 432 899M521 899C545.279 899 573.112 902.178 596 892.536C628.082 879.02 652.562 828.908 635.726 796C624.277 773.621 594.597 775.008 573 775C567.996 774.998 554.536 772.641 550.938 776.603C544.921 783.229 544.284 801.369 542.127 810C534.749 839.516 527.147 869.203 521 899M724 775L695 899L713.272 897.972L717.87 884L727 844C741.268 844 757.332 845.353 770 837.532C785.339 828.061 799.533 796.107 782.815 781.532C769.691 770.092 740.196 775 724 775M891 775C894.446 798.005 911.861 818.943 914.309 842C916.224 860.044 903.486 880.804 902 899L922 899L931.127 861L936.549 842L975.87 796L992 775L972.089 776.028L959 790L929 825L917.308 789L911.49 776.028L891 775M1148 775L1119 899L1167 899L1185.44 897.972L1191 880L1144 880L1153 841L1186 841L1199.44 839.972L1204 823L1158 823L1164 793L1212 793L1216 775L1148 775M1355 793L1386 793C1376.45 826.966 1365.52 864.019 1361 899L1381.06 897.397L1388.65 868L1406 793C1413.06 793 1431.66 796.341 1437.27 791.972C1440.94 789.116 1441.65 779.333 1442 775L1382 775L1359.56 776.028L1355 793M1598 775C1592.39 816.659 1572.42 857.126 1569 899C1573.84 899 1584.44 901.002 1588.41 897.972C1594.28 893.5 1595.41 873.086 1597.13 866C1604.4 836.047 1610.64 805.67 1619 776L1598 775M1763 793L1794 793L1769 899L1790 899C1793.55 872.665 1802.18 845.796 1808.63 820C1810.15 813.894 1811 797.703 1816.43 794.028C1822.64 789.821 1839.57 793 1847 793L1850 775L1790 775L1767.74 776.028L1763 793M1864 775L1835 899L1903 899L1907 880L1860 880L1869 841L1917 841L1920 823L1874 823C1874.93 816.116 1876.36 799.454 1881.56 794.603C1884.45 791.912 1890.39 793 1894 793L1928 793L1932 775L1864 775M1953 775L1933.63 857L1924 899L1942.26 897.972L1946.63 884L1956 844L1958 844L1976.75 884L1984.39 897.972L2007 899L1980 843C1999.48 839.22 2012.28 825.847 2015 806C2016.19 797.315 2015.14 787.356 2007.96 781.39C1995.07 770.691 1968.68 775 1953 775M2017 899L2038 899L2051 841L2099 841L2103 823L2056 823C2057.35 816.457 2058.73 797.888 2064.43 794.028C2071.12 789.496 2089.98 793 2098 793C2101.28 793 2107.6 794.185 2110.01 791.397C2113.01 787.931 2113.64 779.429 2114 775L2066 775C2061.33 775 2051.47 773.141 2047.56 776.028C2041.62 780.419 2040.16 801.85 2038.58 809C2031.89 839.099 2023.23 868.804 2017 899M2326 899L2394 899L2398 880L2351 880L2360 841L2408 841L2412 823L2365 823C2366.37 816.378 2367.62 797.964 2373.43 794.028C2380.12 789.496 2398.98 793 2407 793C2410.27 793 2416.46 794.176 2418.86 791.397C2421.95 787.818 2422.63 779.557 2423 775L2375 775C2370.33 775 2360.47 773.141 2356.56 776.028C2350.65 780.397 2349.38 800.936 2347.63 808C2340.12 838.18 2332.29 868.544 2326 899z"/>
<path style="fill:#010101; stroke:none;" d="M733 827C747.883 826.693 770.15 824.689 767.796 804C766.825 795.459 748.432 789.078 741.564 794.032C735.935 798.092 733.551 820.26 733 827M1969 793L1961 828C1968.59 827.674 1979.51 827.922 1985.91 823.297C1992.76 818.342 1998.01 802.747 1989.87 796.728C1984.76 792.954 1975.13 793.263 1969 793M566 794L546 880C562.696 880 581.833 881.76 596 871.239C613.505 858.24 631.639 816.191 608.985 799.638C597.74 791.421 579.137 794 566 794M837 812L813 850L844 850C843.536 839.212 841.646 821.668 837 812M2161 812L2137 850L2169 850C2166.97 839.551 2166.85 820.563 2161 812M0 878L0 901L24 901L24 900C10.5833 897.69 5.87832 888.796 0 878z"/>
</svg>
